<?xml version="1.0" encoding="UTF-8"?>
<svg xmlns="http://www.w3.org/2000/svg" xmlns:xlink="http://www.w3.org/1999/xlink" width="768pt" height="767.999994pt" viewBox="0 0 768 767.999994" version="1.2">
<defs>
<clipPath id="clip1">
  <path d="M 36.582031 36.582031 L 731.078125 36.582031 L 731.078125 731.082031 L 36.582031 731.082031 Z M 36.582031 36.582031 "/>
</clipPath>
</defs>
<g id="surface1">
<g clip-path="url(#clip1)" clip-rule="nonzero">
<path style=" stroke:none;fill-rule:nonzero;fill:rgb(98.039246%,98.039246%,98.039246%);fill-opacity:1;" d="M 383.828125 36.582031 C 192.363281 36.582031 36.582031 192.363281 36.582031 383.832031 C 36.582031 486.429688 81.347656 578.753906 152.332031 642.371094 L 152.332031 642.617188 L 157.363281 646.957031 C 158.246094 647.726562 159.21875 648.363281 160.113281 649.113281 C 166.351562 654.382812 172.773438 659.429688 179.371094 664.261719 C 181.152344 665.566406 182.929688 666.824219 184.738281 668.082031 C 191.742188 673.003906 198.90625 677.691406 206.253906 682.089844 C 207.484375 682.828125 208.742188 683.519531 209.972656 684.230469 C 218.03125 688.917969 226.265625 693.332031 234.714844 697.367188 C 234.800781 697.410156 234.890625 697.441406 234.976562 697.484375 C 253.046875 706.09375 272 713.140625 291.621094 718.550781 C 291.984375 718.652344 292.34375 718.765625 292.707031 718.855469 C 301.980469 721.386719 311.414062 723.511719 320.976562 725.261719 C 321.875 725.421875 322.757812 725.582031 323.65625 725.742188 C 332.886719 727.363281 342.230469 728.648438 351.710938 729.53125 C 352.792969 729.632812 353.878906 729.691406 354.949219 729.777344 C 364.484375 730.574219 374.09375 731.078125 383.828125 731.078125 C 393.566406 731.078125 403.175781 730.574219 412.710938 729.777344 C 413.792969 729.691406 414.878906 729.632812 415.949219 729.53125 C 425.429688 728.664062 434.773438 727.363281 444.003906 725.742188 C 444.902344 725.582031 445.785156 725.421875 446.683594 725.261719 C 456.246094 723.511719 465.679688 721.386719 474.953125 718.855469 C 475.316406 718.753906 475.675781 718.652344 476.039062 718.550781 C 495.660156 713.140625 514.613281 706.09375 532.683594 697.484375 C 532.769531 697.441406 532.859375 697.410156 532.945312 697.367188 C 541.394531 693.332031 549.628906 688.902344 557.6875 684.230469 C 558.929688 683.507812 560.175781 682.828125 561.40625 682.089844 C 568.769531 677.691406 575.933594 672.988281 582.921875 668.082031 C 584.714844 666.824219 586.507812 665.566406 588.289062 664.261719 C 594.886719 659.429688 601.308594 654.382812 607.546875 649.113281 C 608.441406 648.363281 609.414062 647.726562 610.296875 646.957031 L 615.328125 642.617188 L 615.328125 642.371094 C 686.3125 578.738281 731.078125 486.429688 731.078125 383.832031 C 731.078125 192.363281 575.296875 36.582031 383.828125 36.582031 Z M 383.828125 383.832031 C 320.007812 383.832031 268.082031 331.902344 268.082031 268.082031 C 268.082031 204.257812 320.007812 152.332031 383.828125 152.332031 C 447.652344 152.332031 499.578125 204.257812 499.578125 268.082031 C 499.578125 331.902344 447.652344 383.832031 383.828125 383.832031 Z M 427.234375 412.769531 C 514.988281 412.769531 586.390625 484.171875 586.390625 571.921875 L 586.390625 629.191406 C 585.785156 629.699219 585.148438 630.160156 584.539062 630.667969 C 578.824219 635.3125 572.964844 639.722656 566.976562 643.949219 C 565.644531 644.890625 564.34375 645.859375 563.011719 646.769531 C 556.542969 651.183594 549.902344 655.320312 543.144531 659.242188 C 541.914062 659.964844 540.671875 660.675781 539.425781 661.382812 C 532.335938 665.363281 525.117188 669.097656 517.753906 672.511719 C 516.984375 672.871094 516.203125 673.21875 515.421875 673.566406 C 491.390625 684.492188 466.070312 692.40625 440.011719 697.09375 C 439.1875 697.238281 438.363281 697.398438 437.539062 697.542969 C 429.335938 698.945312 421.058594 700.03125 412.722656 700.796875 C 411.582031 700.898438 410.421875 700.96875 409.265625 701.058594 C 400.832031 701.707031 392.351562 702.140625 383.828125 702.140625 C 375.308594 702.140625 366.828125 701.707031 358.394531 701.027344 C 357.25 700.941406 356.09375 700.871094 354.9375 700.769531 C 346.601562 700 338.324219 698.929688 330.121094 697.511719 C 329.296875 697.367188 328.472656 697.222656 327.648438 697.0625 C 301.589844 692.375 276.269531 684.460938 252.238281 673.539062 C 251.457031 673.175781 250.675781 672.84375 249.90625 672.480469 C 242.542969 669.066406 235.324219 665.335938 228.234375 661.355469 C 226.988281 660.644531 225.757812 659.9375 224.515625 659.214844 C 217.757812 655.308594 211.117188 651.15625 204.648438 646.742188 C 203.304688 645.832031 202 644.859375 200.683594 643.921875 C 194.695312 639.695312 188.835938 635.296875 183.121094 630.636719 C 182.511719 630.144531 181.875 629.667969 181.269531 629.164062 L 181.269531 571.921875 C 181.269531 484.171875 252.671875 412.769531 340.421875 412.769531 Z M 615.328125 601.960938 L 615.328125 571.921875 C 615.328125 481.191406 550.742188 405.257812 465.144531 387.664062 C 503.355469 361.605469 528.515625 317.722656 528.515625 268.082031 C 528.515625 188.300781 463.609375 123.394531 383.828125 123.394531 C 304.050781 123.394531 239.144531 188.300781 239.144531 268.082031 C 239.144531 317.722656 264.304688 361.605469 302.515625 387.664062 C 216.917969 405.257812 152.332031 481.191406 152.332031 571.921875 L 152.332031 601.960938 C 98.5625 544.941406 65.519531 468.199219 65.519531 383.832031 C 65.519531 208.308594 208.308594 65.519531 383.828125 65.519531 C 559.351562 65.519531 702.140625 208.308594 702.140625 383.832031 C 702.140625 468.199219 669.097656 544.941406 615.328125 601.960938 Z M 615.328125 601.960938 "/>
</g>
</g>
</svg>
