<svg width="230" height="226" viewBox="0 0 230 226" fill="none" xmlns="http://www.w3.org/2000/svg">
<g filter="url(#filter0_d_301_96)">
<path d="M116 114.51L116 169.306C116 170.905 115.047 172.351 113.577 172.981L9.57729 217.607C6.93762 218.739 4 216.803 4 213.931L4.00001 6.10977C4.00001 3.22679 6.95747 1.29056 9.59983 2.44363L113.6 47.8268C115.058 48.4629 116 49.9024 116 51.4929L116 114.51Z" fill="#F9F9F9"/>
<path d="M115 114.51L115 169.306C115 170.505 114.285 171.589 113.183 172.062L9.18296 216.688C7.20321 217.537 5 216.085 5 213.931L5.00001 6.10977C5.00001 3.94753 7.21811 2.49537 9.19987 3.36016L113.2 48.7433C114.293 49.2204 115 50.3 115 51.4929L115 114.51Z" stroke="#C4C4C4" stroke-width="2"/>
</g>
<g filter="url(#filter1_d_301_96)">
<path d="M114 114.51L114 169.306C114 170.905 114.953 172.351 116.423 172.981L220.423 217.607C223.062 218.739 226 216.803 226 213.931L226 6.10977C226 3.22679 223.043 1.29056 220.4 2.44363L116.4 47.8268C114.942 48.4629 114 49.9024 114 51.4929L114 114.51Z" fill="#F9F9F9"/>
<path d="M115 114.51L115 169.306C115 170.505 115.715 171.589 116.817 172.062L220.817 216.688C222.797 217.537 225 216.085 225 213.931L225 6.10977C225 3.94753 222.782 2.49537 220.8 3.36016L116.8 48.7433C115.707 49.2204 115 50.3 115 51.4929L115 114.51Z" stroke="#C4C4C4" stroke-width="2"/>
</g>
<defs>
<filter id="filter0_d_301_96" x="0" y="2.10547" width="120" height="223.83" filterUnits="userSpaceOnUse" color-interpolation-filters="sRGB">
<feFlood flood-opacity="0" result="BackgroundImageFix"/>
<feColorMatrix in="SourceAlpha" type="matrix" values="0 0 0 0 0 0 0 0 0 0 0 0 0 0 0 0 0 0 127 0" result="hardAlpha"/>
<feOffset dy="4"/>
<feGaussianBlur stdDeviation="2"/>
<feComposite in2="hardAlpha" operator="out"/>
<feColorMatrix type="matrix" values="0 0 0 0 0 0 0 0 0 0 0 0 0 0 0 0 0 0 0.04 0"/>
<feBlend mode="normal" in2="BackgroundImageFix" result="effect1_dropShadow_301_96"/>
<feBlend mode="normal" in="SourceGraphic" in2="effect1_dropShadow_301_96" result="shape"/>
</filter>
<filter id="filter1_d_301_96" x="110" y="2.10547" width="120" height="223.83" filterUnits="userSpaceOnUse" color-interpolation-filters="sRGB">
<feFlood flood-opacity="0" result="BackgroundImageFix"/>
<feColorMatrix in="SourceAlpha" type="matrix" values="0 0 0 0 0 0 0 0 0 0 0 0 0 0 0 0 0 0 127 0" result="hardAlpha"/>
<feOffset dy="4"/>
<feGaussianBlur stdDeviation="2"/>
<feComposite in2="hardAlpha" operator="out"/>
<feColorMatrix type="matrix" values="0 0 0 0 0 0 0 0 0 0 0 0 0 0 0 0 0 0 0.04 0"/>
<feBlend mode="normal" in2="BackgroundImageFix" result="effect1_dropShadow_301_96"/>
<feBlend mode="normal" in="SourceGraphic" in2="effect1_dropShadow_301_96" result="shape"/>
</filter>
</defs>
</svg>
