<svg width="120" height="318" viewBox="0 0 120 318" fill="none" xmlns="http://www.w3.org/2000/svg">
<g filter="url(#filter0_d)">
<rect width="19" height="217" rx="2" transform="matrix(-1 0 0 1 42 50)" fill="#E9E9E9"/>
<rect x="-1" y="1" width="17" height="215" rx="1" transform="matrix(-1 0 0 1 40 50)" stroke="#C4C4C4" stroke-width="2"/>
</g>
<g filter="url(#filter1_d)">
<rect width="19" height="173" rx="2" transform="matrix(-1 0 0 1 96 73)" fill="#E9E9E9"/>
<rect x="-1" y="1" width="17" height="171" rx="1" transform="matrix(-1 0 0 1 94 73)" stroke="#C4C4C4" stroke-width="2"/>
</g>
<g filter="url(#filter2_d)">
<path d="M116 164.51L116 220.624C116 221.423 115.523 222.146 114.789 222.462L6.78864 268.803C5.46881 269.37 4 268.402 4 266.965L4.00001 53.0549C4.00001 51.6134 5.47874 50.6453 6.79992 51.2218L114.8 98.3505C115.529 98.6686 116 99.3883 116 100.184L116 164.51Z" fill="#E9E9E9"/>
<path d="M115 164.51L115 220.624C115 221.024 114.762 221.385 114.394 221.543L6.39432 267.884C5.73441 268.168 5 267.684 5 266.965L5.00001 53.0549C5.00001 52.3341 5.73938 51.8501 6.39996 52.1383L114.4 99.267C114.764 99.4261 115 99.7859 115 100.184L115 164.51Z" stroke="#C4C4C4" stroke-width="2"/>
</g>
<path d="M32 45L37.7735 35H26.2265L32 45ZM33 27C33 26.4477 32.5523 26 32 26C31.4477 26 31 26.4477 31 27H33ZM33 36V27H31V36H33Z" fill="black"/>
<circle cx="31.5" cy="10.5" r="10.5" fill="#005FB8"/>
<path d="M32.9561 15H30.9805V7.38477L28.6221 8.11621V6.50977L32.7441 5.0332H32.9561V15Z" fill="#F7F7F7"/>
<path d="M86 50L91.7735 60H80.2265L86 50ZM87 68C87 68.5523 86.5523 69 86 69C85.4477 69 85 68.5523 85 68H87ZM87 59V68H85V59H87Z" fill="black"/>
<circle cx="85.5" cy="33.5" r="10.5" fill="#005FB8"/>
<path d="M88.002 34.2539H89.1299V35.8467H88.002V38H86.0264V35.8467H81.9453L81.8564 34.6025L86.0059 28.0469H88.002V34.2539ZM83.8252 34.2539H86.0264V30.7402L85.8965 30.9658L83.8252 34.2539Z" fill="#F7F7F7"/>
<path d="M33 291L38.7735 281H27.2265L33 291ZM34 273C34 272.448 33.5523 272 33 272C32.4477 272 32 272.448 32 273H34ZM34 282V273H32V282H34Z" fill="black"/>
<circle r="10.5" transform="matrix(1 0 0 -1 32.5 307.5)" fill="#005FB8"/>
<path d="M35.9795 312H29.1572V310.646L32.377 307.215C32.819 306.732 33.1449 306.31 33.3545 305.95C33.5687 305.59 33.6758 305.248 33.6758 304.925C33.6758 304.483 33.5641 304.136 33.3408 303.886C33.1175 303.631 32.7985 303.503 32.3838 303.503C31.9372 303.503 31.584 303.658 31.3242 303.968C31.069 304.273 30.9414 304.676 30.9414 305.178H28.959C28.959 304.572 29.1025 304.018 29.3896 303.517C29.6813 303.015 30.0915 302.623 30.6201 302.341C31.1488 302.054 31.748 301.91 32.418 301.91C33.4434 301.91 34.2386 302.156 34.8037 302.648C35.3734 303.141 35.6582 303.836 35.6582 304.733C35.6582 305.226 35.5306 305.727 35.2754 306.237C35.0202 306.748 34.5827 307.342 33.9629 308.021L31.7002 310.407H35.9795V312Z" fill="#F7F7F7"/>
<path d="M86 251L91.7735 261H80.2265L86 251ZM87 269C87 269.552 86.5523 270 86 270C85.4477 270 85 269.552 85 269H87ZM87 260V269H85V260H87Z" fill="black"/>
<circle r="10.5" transform="matrix(1 0 0 -1 85.5 285.5)" fill="#005FB8"/>
<path d="M84.167 284.148H85.2197C85.721 284.148 86.0924 284.023 86.334 283.772C86.5755 283.522 86.6963 283.189 86.6963 282.774C86.6963 282.373 86.5755 282.061 86.334 281.838C86.097 281.615 85.7689 281.503 85.3496 281.503C84.9714 281.503 84.6546 281.608 84.3994 281.817C84.1442 282.022 84.0166 282.291 84.0166 282.624H82.041C82.041 282.104 82.18 281.64 82.458 281.229C82.7406 280.815 83.1325 280.491 83.6338 280.259C84.1396 280.026 84.6956 279.91 85.3018 279.91C86.3545 279.91 87.1794 280.163 87.7764 280.669C88.3734 281.17 88.6719 281.863 88.6719 282.747C88.6719 283.203 88.5329 283.622 88.2549 284.005C87.9769 284.388 87.6123 284.682 87.1611 284.887C87.7217 285.087 88.1387 285.388 88.4121 285.789C88.6901 286.19 88.8291 286.664 88.8291 287.211C88.8291 288.095 88.5055 288.804 87.8584 289.337C87.2158 289.87 86.3636 290.137 85.3018 290.137C84.3083 290.137 83.4948 289.875 82.8613 289.351C82.2324 288.826 81.918 288.134 81.918 287.272H83.8936C83.8936 287.646 84.0326 287.951 84.3105 288.188C84.5931 288.425 84.9395 288.544 85.3496 288.544C85.819 288.544 86.1859 288.421 86.4502 288.175C86.7191 287.924 86.8535 287.594 86.8535 287.184C86.8535 286.19 86.3066 285.693 85.2129 285.693H84.167V284.148Z" fill="#F7F7F7"/>
<path d="M20.4551 169V159.047H23.9414C25.1491 159.047 26.0651 159.279 26.6895 159.744C27.3138 160.204 27.626 160.881 27.626 161.774C27.626 162.262 27.5007 162.693 27.25 163.066C26.9993 163.436 26.6507 163.707 26.2041 163.88C26.7145 164.007 27.1156 164.265 27.4072 164.652C27.7035 165.04 27.8516 165.514 27.8516 166.074C27.8516 167.031 27.5462 167.756 26.9355 168.248C26.3249 168.74 25.4544 168.991 24.3242 169H20.4551ZM22.5059 164.666V167.353H24.2627C24.7458 167.353 25.1217 167.239 25.3906 167.011C25.6641 166.778 25.8008 166.459 25.8008 166.054C25.8008 165.142 25.3291 164.68 24.3857 164.666H22.5059ZM22.5059 163.217H24.0234C25.0579 163.199 25.5752 162.786 25.5752 161.979C25.5752 161.528 25.443 161.205 25.1787 161.009C24.9189 160.808 24.5065 160.708 23.9414 160.708H22.5059V163.217ZM33.5527 169C33.4616 168.822 33.3955 168.601 33.3545 168.337C32.876 168.87 32.2539 169.137 31.4883 169.137C30.7637 169.137 30.1621 168.927 29.6836 168.508C29.2096 168.089 28.9727 167.56 28.9727 166.922C28.9727 166.138 29.262 165.536 29.8408 165.117C30.4242 164.698 31.265 164.486 32.3633 164.481H33.2725V164.058C33.2725 163.716 33.1836 163.442 33.0059 163.237C32.8327 163.032 32.557 162.93 32.1787 162.93C31.846 162.93 31.584 163.009 31.3926 163.169C31.2057 163.328 31.1123 163.547 31.1123 163.825H29.1367C29.1367 163.397 29.2689 163 29.5332 162.636C29.7975 162.271 30.1712 161.986 30.6543 161.781C31.1374 161.572 31.6797 161.467 32.2812 161.467C33.1927 161.467 33.915 161.697 34.4482 162.157C34.986 162.613 35.2549 163.256 35.2549 164.085V167.291C35.2594 167.993 35.3574 168.524 35.5488 168.884V169H33.5527ZM31.9189 167.626C32.2106 167.626 32.4795 167.562 32.7256 167.435C32.9717 167.302 33.154 167.127 33.2725 166.908V165.637H32.5342C31.5452 165.637 31.0189 165.979 30.9551 166.662L30.9482 166.778C30.9482 167.024 31.0348 167.227 31.208 167.387C31.3812 167.546 31.6182 167.626 31.9189 167.626ZM39.8486 167.544C40.2132 167.544 40.5094 167.444 40.7373 167.243C40.9652 167.043 41.0837 166.776 41.0928 166.443H42.9453C42.9408 166.945 42.804 167.405 42.5352 167.824C42.2663 168.239 41.8971 168.562 41.4277 168.795C40.9629 169.023 40.4479 169.137 39.8828 169.137C38.8255 169.137 37.9915 168.802 37.3809 168.132C36.7702 167.457 36.4648 166.528 36.4648 165.343V165.213C36.4648 164.074 36.7679 163.164 37.374 162.485C37.9801 161.806 38.8118 161.467 39.8691 161.467C40.7943 161.467 41.5348 161.731 42.0908 162.26C42.6514 162.784 42.9362 163.483 42.9453 164.358H41.0928C41.0837 163.976 40.9652 163.666 40.7373 163.429C40.5094 163.187 40.2087 163.066 39.835 163.066C39.3747 163.066 39.026 163.235 38.7891 163.572C38.5566 163.905 38.4404 164.447 38.4404 165.199V165.404C38.4404 166.165 38.5566 166.712 38.7891 167.045C39.0215 167.378 39.3747 167.544 39.8486 167.544ZM46.7598 166.033L46.0488 166.744V169H44.0732V158.5H46.0488V164.317L46.4316 163.825L48.3252 161.604H50.6973L48.0244 164.687L50.9297 169H48.6602L46.7598 166.033ZM57.4033 159.785V161.604H58.668V163.053H57.4033V166.744C57.4033 167.018 57.4557 167.214 57.5605 167.332C57.6654 167.451 57.8659 167.51 58.1621 167.51C58.3809 167.51 58.5745 167.494 58.7432 167.462V168.959C58.3558 169.077 57.957 169.137 57.5469 169.137C56.1615 169.137 55.4551 168.437 55.4277 167.038V163.053H54.3477V161.604H55.4277V159.785H57.4033ZM59.2559 165.233C59.2559 164.5 59.3971 163.846 59.6797 163.271C59.9622 162.697 60.3678 162.253 60.8965 161.938C61.4297 161.624 62.0472 161.467 62.749 161.467C63.7471 161.467 64.5605 161.772 65.1895 162.383C65.8229 162.993 66.1761 163.823 66.249 164.871L66.2627 165.377C66.2627 166.512 65.946 167.423 65.3125 168.111C64.679 168.795 63.8291 169.137 62.7627 169.137C61.6963 169.137 60.8441 168.795 60.2061 168.111C59.5726 167.428 59.2559 166.498 59.2559 165.322V165.233ZM61.2314 165.377C61.2314 166.079 61.3636 166.617 61.6279 166.99C61.8923 167.359 62.2705 167.544 62.7627 167.544C63.2412 167.544 63.6149 167.362 63.8838 166.997C64.1527 166.628 64.2871 166.04 64.2871 165.233C64.2871 164.545 64.1527 164.012 63.8838 163.634C63.6149 163.256 63.2367 163.066 62.749 163.066C62.266 163.066 61.8923 163.256 61.6279 163.634C61.3636 164.007 61.2314 164.589 61.2314 165.377ZM71.0957 169V159.047H74.582C75.7897 159.047 76.7057 159.279 77.3301 159.744C77.9544 160.204 78.2666 160.881 78.2666 161.774C78.2666 162.262 78.1413 162.693 77.8906 163.066C77.64 163.436 77.2913 163.707 76.8447 163.88C77.3551 164.007 77.7562 164.265 78.0479 164.652C78.3441 165.04 78.4922 165.514 78.4922 166.074C78.4922 167.031 78.1868 167.756 77.5762 168.248C76.9655 168.74 76.0951 168.991 74.9648 169H71.0957ZM73.1465 164.666V167.353H74.9033C75.3864 167.353 75.7624 167.239 76.0312 167.011C76.3047 166.778 76.4414 166.459 76.4414 166.054C76.4414 165.142 75.9697 164.68 75.0264 164.666H73.1465ZM73.1465 163.217H74.6641C75.6986 163.199 76.2158 162.786 76.2158 161.979C76.2158 161.528 76.0837 161.205 75.8193 161.009C75.5596 160.808 75.1471 160.708 74.582 160.708H73.1465V163.217ZM84.1934 169C84.1022 168.822 84.0361 168.601 83.9951 168.337C83.5166 168.87 82.8945 169.137 82.1289 169.137C81.4043 169.137 80.8027 168.927 80.3242 168.508C79.8503 168.089 79.6133 167.56 79.6133 166.922C79.6133 166.138 79.9027 165.536 80.4814 165.117C81.0648 164.698 81.9056 164.486 83.0039 164.481H83.9131V164.058C83.9131 163.716 83.8242 163.442 83.6465 163.237C83.4733 163.032 83.1976 162.93 82.8193 162.93C82.4867 162.93 82.2246 163.009 82.0332 163.169C81.8464 163.328 81.7529 163.547 81.7529 163.825H79.7773C79.7773 163.397 79.9095 163 80.1738 162.636C80.4382 162.271 80.8118 161.986 81.2949 161.781C81.778 161.572 82.3203 161.467 82.9219 161.467C83.8333 161.467 84.5557 161.697 85.0889 162.157C85.6266 162.613 85.8955 163.256 85.8955 164.085V167.291C85.9001 167.993 85.998 168.524 86.1895 168.884V169H84.1934ZM82.5596 167.626C82.8512 167.626 83.1201 167.562 83.3662 167.435C83.6123 167.302 83.7946 167.127 83.9131 166.908V165.637H83.1748C82.1859 165.637 81.6595 165.979 81.5957 166.662L81.5889 166.778C81.5889 167.024 81.6755 167.227 81.8486 167.387C82.0218 167.546 82.2588 167.626 82.5596 167.626ZM90.4893 167.544C90.8538 167.544 91.1501 167.444 91.3779 167.243C91.6058 167.043 91.7243 166.776 91.7334 166.443H93.5859C93.5814 166.945 93.4447 167.405 93.1758 167.824C92.9069 168.239 92.5378 168.562 92.0684 168.795C91.6035 169.023 91.0885 169.137 90.5234 169.137C89.4661 169.137 88.6322 168.802 88.0215 168.132C87.4108 167.457 87.1055 166.528 87.1055 165.343V165.213C87.1055 164.074 87.4085 163.164 88.0146 162.485C88.6208 161.806 89.4525 161.467 90.5098 161.467C91.4349 161.467 92.1755 161.731 92.7314 162.26C93.292 162.784 93.5768 163.483 93.5859 164.358H91.7334C91.7243 163.976 91.6058 163.666 91.3779 163.429C91.1501 163.187 90.8493 163.066 90.4756 163.066C90.0153 163.066 89.6667 163.235 89.4297 163.572C89.1973 163.905 89.0811 164.447 89.0811 165.199V165.404C89.0811 166.165 89.1973 166.712 89.4297 167.045C89.6621 167.378 90.0153 167.544 90.4893 167.544ZM97.4004 166.033L96.6895 166.744V169H94.7139V158.5H96.6895V164.317L97.0723 163.825L98.9658 161.604H101.338L98.665 164.687L101.57 169H99.3008L97.4004 166.033Z" fill="black"/>
<defs>
<filter id="filter0_d" x="19" y="50" width="27" height="225" filterUnits="userSpaceOnUse" color-interpolation-filters="sRGB">
<feFlood flood-opacity="0" result="BackgroundImageFix"/>
<feColorMatrix in="SourceAlpha" type="matrix" values="0 0 0 0 0 0 0 0 0 0 0 0 0 0 0 0 0 0 127 0" result="hardAlpha"/>
<feOffset dy="4"/>
<feGaussianBlur stdDeviation="2"/>
<feComposite in2="hardAlpha" operator="out"/>
<feColorMatrix type="matrix" values="0 0 0 0 0 0 0 0 0 0 0 0 0 0 0 0 0 0 0.04 0"/>
<feBlend mode="normal" in2="BackgroundImageFix" result="effect1_dropShadow"/>
<feBlend mode="normal" in="SourceGraphic" in2="effect1_dropShadow" result="shape"/>
</filter>
<filter id="filter1_d" x="73" y="73" width="27" height="181" filterUnits="userSpaceOnUse" color-interpolation-filters="sRGB">
<feFlood flood-opacity="0" result="BackgroundImageFix"/>
<feColorMatrix in="SourceAlpha" type="matrix" values="0 0 0 0 0 0 0 0 0 0 0 0 0 0 0 0 0 0 127 0" result="hardAlpha"/>
<feOffset dy="4"/>
<feGaussianBlur stdDeviation="2"/>
<feComposite in2="hardAlpha" operator="out"/>
<feColorMatrix type="matrix" values="0 0 0 0 0 0 0 0 0 0 0 0 0 0 0 0 0 0 0.04 0"/>
<feBlend mode="normal" in2="BackgroundImageFix" result="effect1_dropShadow"/>
<feBlend mode="normal" in="SourceGraphic" in2="effect1_dropShadow" result="shape"/>
</filter>
<filter id="filter2_d" x="0" y="51.0527" width="120" height="225.915" filterUnits="userSpaceOnUse" color-interpolation-filters="sRGB">
<feFlood flood-opacity="0" result="BackgroundImageFix"/>
<feColorMatrix in="SourceAlpha" type="matrix" values="0 0 0 0 0 0 0 0 0 0 0 0 0 0 0 0 0 0 127 0" result="hardAlpha"/>
<feOffset dy="4"/>
<feGaussianBlur stdDeviation="2"/>
<feComposite in2="hardAlpha" operator="out"/>
<feColorMatrix type="matrix" values="0 0 0 0 0 0 0 0 0 0 0 0 0 0 0 0 0 0 0.04 0"/>
<feBlend mode="normal" in2="BackgroundImageFix" result="effect1_dropShadow"/>
<feBlend mode="normal" in="SourceGraphic" in2="effect1_dropShadow" result="shape"/>
</filter>
</defs>
</svg>
