<svg width="273" height="158" viewBox="0 0 273 158" fill="none" xmlns="http://www.w3.org/2000/svg">
<path d="M2.14749 25.6702L11.1048 21.8377C12.4448 21.2644 13.9913 21.4659 15.1412 22.3635L17.8248 24.4583C18.8504 25.2589 20.2007 25.5114 21.4453 25.1353L33.353 21.5365C34.4966 21.1909 35.7354 21.3748 36.7303 22.0379L49.663 30.658C50.0921 30.9439 50.4619 31.31 50.7521 31.7361L56.6143 40.3416C57.9496 42.3018 60.6859 42.679 62.4982 41.1529L73.4759 31.9085C75.6286 30.0956 78.9333 31.0172 79.8412 33.6836L85.9652 51.669C86.9117 54.4489 90.4297 55.2992 92.5369 53.2576L110.41 35.9407C112.57 33.8478 116.183 34.8021 117.032 37.6899L125.071 65.0188C126.022 68.2509 130.296 68.9369 132.205 66.1637L137.377 58.6472C137.742 58.1164 138.231 57.6819 138.8 57.3807L149.614 51.6616C150.285 51.307 150.841 50.7689 151.216 50.11L154.769 43.8828C156.503 40.8428 161.032 41.3444 162.066 44.6909L169.123 67.5387C169.305 68.13 169.623 68.671 170.05 69.1193L176.276 75.6559C177.612 77.0585 179.76 77.304 181.376 76.2388L189.382 70.9604C191.357 69.6578 194.028 70.348 195.128 72.4457L213.732 107.916C214.102 108.621 214.674 109.2 215.375 109.579L233.288 119.258C233.648 119.453 233.977 119.702 234.262 119.997L247.407 133.577L259.797 149.78" stroke="#C4C4C4" stroke-width="7"/>
<path d="M3.41493 25.9351C130.035 39.2759 193.46 77.0274 258.531 149.78" stroke="#636363" stroke-width="3" stroke-dasharray="10 10"/>
</svg>
