<svg width="120" height="318" viewBox="0 0 120 318" fill="none" xmlns="http://www.w3.org/2000/svg">
<g filter="url(#filter0_d)">
<rect width="19" height="217" rx="2" transform="matrix(-1 0 0 1 42 50)" fill="#E9E9E9"/>
<rect x="-1" y="1" width="17" height="215" rx="1" transform="matrix(-1 0 0 1 40 50)" stroke="#C4C4C4" stroke-width="2"/>
</g>
<g filter="url(#filter1_d)">
<rect width="19" height="139" rx="2" transform="matrix(-1 0 0 1 96 107)" fill="#E9E9E9"/>
<rect x="-1" y="1" width="17" height="137" rx="1" transform="matrix(-1 0 0 1 94 107)" stroke="#C4C4C4" stroke-width="2"/>
</g>
<g filter="url(#filter2_d)">
<path d="M116 164.51L116 220.624C116 221.423 115.523 222.146 114.789 222.462L6.78864 268.803C5.46881 269.37 4 268.402 4 266.965L4.00001 53.0549C4.00001 51.6134 5.47874 50.6453 6.79992 51.2218L114.8 98.3505C115.529 98.6686 116 99.3883 116 100.184L116 164.51Z" fill="#E9E9E9"/>
<path d="M115 164.51L115 220.624C115 221.024 114.762 221.385 114.394 221.543L6.39432 267.884C5.73441 268.168 5 267.684 5 266.965L5.00001 53.0549C5.00001 52.3341 5.73938 51.8501 6.39996 52.1383L114.4 99.267C114.764 99.4261 115 99.7859 115 100.184L115 164.51Z" stroke="#C4C4C4" stroke-width="2"/>
</g>
<path d="M32 45L37.7735 35H26.2265L32 45ZM33 27C33 26.4477 32.5523 26 32 26C31.4477 26 31 26.4477 31 27H33ZM33 36V27H31V36H33Z" fill="black"/>
<circle cx="31.5" cy="10.5" r="10.5" fill="#005FB8"/>
<path d="M32.9561 15H30.9805V7.38477L28.6221 8.11621V6.50977L32.7441 5.0332H32.9561V15Z" fill="#F7F7F7"/>
<path d="M33 291L38.7735 281H27.2265L33 291ZM34 273C34 272.448 33.5523 272 33 272C32.4477 272 32 272.448 32 273H34ZM34 282V273H32V282H34Z" fill="black"/>
<circle r="10.5" transform="matrix(1 0 0 -1 32.5 307.5)" fill="#005FB8"/>
<path d="M35.9795 312H29.1572V310.646L32.377 307.215C32.819 306.732 33.1449 306.31 33.3545 305.95C33.5687 305.59 33.6758 305.248 33.6758 304.925C33.6758 304.483 33.5641 304.136 33.3408 303.886C33.1175 303.631 32.7985 303.503 32.3838 303.503C31.9372 303.503 31.584 303.658 31.3242 303.968C31.069 304.273 30.9414 304.676 30.9414 305.178H28.959C28.959 304.572 29.1025 304.018 29.3896 303.517C29.6813 303.015 30.0915 302.623 30.6201 302.341C31.1488 302.054 31.748 301.91 32.418 301.91C33.4434 301.91 34.2386 302.156 34.8037 302.648C35.3734 303.141 35.6582 303.836 35.6582 304.733C35.6582 305.226 35.5306 305.727 35.2754 306.237C35.0202 306.748 34.5827 307.342 33.9629 308.021L31.7002 310.407H35.9795V312Z" fill="#F7F7F7"/>
<path d="M87 271L92.7735 261H81.2265L87 271ZM88 253C88 252.448 87.5523 252 87 252C86.4477 252 86 252.448 86 253H88ZM88 262V253H86V262H88Z" fill="black"/>
<circle r="10.5" transform="matrix(1 0 0 -1 86.5 287.5)" fill="#005FB8"/>
<path d="M85.167 286.148H86.2197C86.721 286.148 87.0924 286.023 87.334 285.772C87.5755 285.522 87.6963 285.189 87.6963 284.774C87.6963 284.373 87.5755 284.061 87.334 283.838C87.097 283.615 86.7689 283.503 86.3496 283.503C85.9714 283.503 85.6546 283.608 85.3994 283.817C85.1442 284.022 85.0166 284.291 85.0166 284.624H83.041C83.041 284.104 83.18 283.64 83.458 283.229C83.7406 282.815 84.1325 282.491 84.6338 282.259C85.1396 282.026 85.6956 281.91 86.3018 281.91C87.3545 281.91 88.1794 282.163 88.7764 282.669C89.3734 283.17 89.6719 283.863 89.6719 284.747C89.6719 285.203 89.5329 285.622 89.2549 286.005C88.9769 286.388 88.6123 286.682 88.1611 286.887C88.7217 287.087 89.1387 287.388 89.4121 287.789C89.6901 288.19 89.8291 288.664 89.8291 289.211C89.8291 290.095 89.5055 290.804 88.8584 291.337C88.2158 291.87 87.3636 292.137 86.3018 292.137C85.3083 292.137 84.4948 291.875 83.8613 291.351C83.2324 290.826 82.918 290.134 82.918 289.272H84.8936C84.8936 289.646 85.0326 289.951 85.3105 290.188C85.5931 290.425 85.9395 290.544 86.3496 290.544C86.819 290.544 87.1859 290.421 87.4502 290.175C87.7191 289.924 87.8535 289.594 87.8535 289.184C87.8535 288.19 87.3066 287.693 86.2129 287.693H85.167V286.148Z" fill="#F7F7F7"/>
<path d="M39.3701 161V151.047H42.4326C43.3076 151.047 44.0892 151.245 44.7773 151.642C45.4701 152.034 46.0101 152.594 46.3975 153.323C46.7848 154.048 46.9785 154.873 46.9785 155.798V156.256C46.9785 157.181 46.7871 158.004 46.4043 158.724C46.026 159.444 45.4906 160.002 44.7979 160.398C44.1051 160.795 43.3236 160.995 42.4531 161H39.3701ZM41.4209 152.708V159.353H42.4121C43.2142 159.353 43.8271 159.09 44.251 158.566C44.6748 158.042 44.8913 157.293 44.9004 156.317V155.791C44.9004 154.779 44.6908 154.014 44.2715 153.494C43.8522 152.97 43.2393 152.708 42.4326 152.708H41.4209ZM48.0381 157.233C48.0381 156.5 48.1794 155.846 48.4619 155.271C48.7445 154.697 49.1501 154.253 49.6787 153.938C50.2119 153.624 50.8294 153.467 51.5312 153.467C52.5293 153.467 53.3428 153.772 53.9717 154.383C54.6051 154.993 54.9583 155.823 55.0312 156.871L55.0449 157.377C55.0449 158.512 54.7282 159.423 54.0947 160.111C53.4613 160.795 52.6113 161.137 51.5449 161.137C50.4785 161.137 49.6263 160.795 48.9883 160.111C48.3548 159.428 48.0381 158.498 48.0381 157.322V157.233ZM50.0137 157.377C50.0137 158.079 50.1458 158.617 50.4102 158.99C50.6745 159.359 51.0527 159.544 51.5449 159.544C52.0234 159.544 52.3971 159.362 52.666 158.997C52.9349 158.628 53.0693 158.04 53.0693 157.233C53.0693 156.545 52.9349 156.012 52.666 155.634C52.3971 155.256 52.0189 155.066 51.5312 155.066C51.0482 155.066 50.6745 155.256 50.4102 155.634C50.1458 156.007 50.0137 156.589 50.0137 157.377ZM60.6914 160.248C60.2038 160.84 59.5293 161.137 58.668 161.137C57.875 161.137 57.2689 160.909 56.8496 160.453C56.4349 159.997 56.223 159.33 56.2139 158.45V153.604H58.1895V158.382C58.1895 159.152 58.5404 159.537 59.2422 159.537C59.9121 159.537 60.3724 159.305 60.623 158.84V153.604H62.6055V161H60.7461L60.6914 160.248ZM70.7607 157.37C70.7607 158.555 70.5078 159.48 70.002 160.146C69.4961 160.806 68.7897 161.137 67.8828 161.137C67.0807 161.137 66.4404 160.829 65.9619 160.214L65.873 161H64.0957V150.5H66.0713V154.267C66.527 153.733 67.1263 153.467 67.8691 153.467C68.7715 153.467 69.4779 153.799 69.9883 154.465C70.5033 155.126 70.7607 156.058 70.7607 157.261V157.37ZM68.7852 157.227C68.7852 156.479 68.6667 155.935 68.4297 155.593C68.1927 155.246 67.8395 155.073 67.3701 155.073C66.7412 155.073 66.3083 155.331 66.0713 155.846V158.765C66.3128 159.284 66.7503 159.544 67.3838 159.544C68.0218 159.544 68.4411 159.229 68.6416 158.601C68.7373 158.3 68.7852 157.842 68.7852 157.227ZM74.0693 161H72.0869V150.5H74.0693V161ZM79.1074 161.137C78.0228 161.137 77.1387 160.804 76.4551 160.139C75.776 159.473 75.4365 158.587 75.4365 157.479V157.288C75.4365 156.545 75.5801 155.882 75.8672 155.299C76.1543 154.711 76.5599 154.26 77.084 153.945C77.6126 153.626 78.2142 153.467 78.8887 153.467C79.9004 153.467 80.6956 153.786 81.2744 154.424C81.8577 155.062 82.1494 155.966 82.1494 157.138V157.944H77.4395C77.5033 158.427 77.6947 158.815 78.0137 159.106C78.3372 159.398 78.7451 159.544 79.2373 159.544C79.9984 159.544 80.5931 159.268 81.0215 158.717L81.9922 159.804C81.696 160.223 81.2949 160.551 80.7891 160.788C80.2832 161.021 79.7227 161.137 79.1074 161.137ZM78.8818 155.066C78.4899 155.066 78.1709 155.199 77.9248 155.463C77.6833 155.727 77.5283 156.105 77.46 156.598H80.208V156.44C80.1989 156.003 80.0804 155.666 79.8525 155.429C79.6247 155.187 79.3011 155.066 78.8818 155.066ZM29.7793 177V167.047H32.8418C33.7168 167.047 34.4984 167.245 35.1865 167.642C35.8792 168.034 36.4193 168.594 36.8066 169.323C37.194 170.048 37.3877 170.873 37.3877 171.798V172.256C37.3877 173.181 37.1963 174.004 36.8135 174.724C36.4352 175.444 35.8997 176.002 35.207 176.398C34.5143 176.795 33.7327 176.995 32.8623 177H29.7793ZM31.8301 168.708V175.353H32.8213C33.6234 175.353 34.2363 175.09 34.6602 174.566C35.084 174.042 35.3005 173.293 35.3096 172.317V171.791C35.3096 170.779 35.0999 170.014 34.6807 169.494C34.2614 168.97 33.6484 168.708 32.8418 168.708H31.8301ZM40.8398 177H38.8574V169.604H40.8398V177ZM38.7412 167.689C38.7412 167.393 38.8392 167.149 39.0352 166.958C39.2357 166.767 39.5068 166.671 39.8486 166.671C40.1859 166.671 40.4548 166.767 40.6553 166.958C40.8558 167.149 40.9561 167.393 40.9561 167.689C40.9561 167.99 40.8535 168.236 40.6484 168.428C40.4479 168.619 40.1813 168.715 39.8486 168.715C39.516 168.715 39.2471 168.619 39.042 168.428C38.8415 168.236 38.7412 167.99 38.7412 167.689ZM46.4795 174.956C46.4795 174.715 46.3587 174.525 46.1172 174.389C45.8802 174.247 45.4974 174.122 44.9688 174.013C43.2096 173.644 42.3301 172.896 42.3301 171.771C42.3301 171.114 42.6012 170.567 43.1436 170.13C43.6904 169.688 44.4036 169.467 45.2832 169.467C46.222 169.467 46.9717 169.688 47.5322 170.13C48.0973 170.572 48.3799 171.146 48.3799 171.853H46.4043C46.4043 171.57 46.3132 171.338 46.1309 171.155C45.9486 170.968 45.6637 170.875 45.2764 170.875C44.9437 170.875 44.6862 170.95 44.5039 171.101C44.3216 171.251 44.2305 171.442 44.2305 171.675C44.2305 171.894 44.333 172.071 44.5381 172.208C44.7477 172.34 45.0986 172.456 45.5908 172.557C46.083 172.652 46.4977 172.762 46.835 172.885C47.8786 173.268 48.4004 173.931 48.4004 174.874C48.4004 175.549 48.111 176.095 47.5322 176.515C46.9535 176.929 46.2061 177.137 45.29 177.137C44.6702 177.137 44.1188 177.027 43.6357 176.809C43.1572 176.585 42.7812 176.282 42.5078 175.899C42.2344 175.512 42.0977 175.095 42.0977 174.648H43.9707C43.9889 174.999 44.1188 175.268 44.3604 175.455C44.6019 175.642 44.9255 175.735 45.3311 175.735C45.7093 175.735 45.9941 175.665 46.1855 175.523C46.3815 175.378 46.4795 175.188 46.4795 174.956ZM52.7549 175.544C53.1195 175.544 53.4157 175.444 53.6436 175.243C53.8714 175.043 53.9899 174.776 53.999 174.443H55.8516C55.847 174.945 55.7103 175.405 55.4414 175.824C55.1725 176.239 54.8034 176.562 54.334 176.795C53.8691 177.023 53.3542 177.137 52.7891 177.137C51.7318 177.137 50.8978 176.802 50.2871 176.132C49.6764 175.457 49.3711 174.528 49.3711 173.343V173.213C49.3711 172.074 49.6742 171.164 50.2803 170.485C50.8864 169.806 51.7181 169.467 52.7754 169.467C53.7005 169.467 54.4411 169.731 54.9971 170.26C55.5576 170.784 55.8424 171.483 55.8516 172.358H53.999C53.9899 171.976 53.8714 171.666 53.6436 171.429C53.4157 171.187 53.1149 171.066 52.7412 171.066C52.2809 171.066 51.9323 171.235 51.6953 171.572C51.4629 171.905 51.3467 172.447 51.3467 173.199V173.404C51.3467 174.165 51.4629 174.712 51.6953 175.045C51.9277 175.378 52.2809 175.544 52.7549 175.544ZM58.9072 170.41C59.4313 169.781 60.0898 169.467 60.8828 169.467C62.487 169.467 63.3005 170.399 63.3232 172.263V177H61.3477V172.317C61.3477 171.894 61.2565 171.581 61.0742 171.381C60.8919 171.176 60.5889 171.073 60.165 171.073C59.5863 171.073 59.167 171.297 58.9072 171.743V177H56.9316V166.5H58.9072V170.41ZM69.0996 177C69.0085 176.822 68.9424 176.601 68.9014 176.337C68.4229 176.87 67.8008 177.137 67.0352 177.137C66.3105 177.137 65.709 176.927 65.2305 176.508C64.7565 176.089 64.5195 175.56 64.5195 174.922C64.5195 174.138 64.8089 173.536 65.3877 173.117C65.971 172.698 66.8118 172.486 67.9102 172.481H68.8193V172.058C68.8193 171.716 68.7305 171.442 68.5527 171.237C68.3796 171.032 68.1038 170.93 67.7256 170.93C67.3929 170.93 67.1309 171.009 66.9395 171.169C66.7526 171.328 66.6592 171.547 66.6592 171.825H64.6836C64.6836 171.397 64.8158 171 65.0801 170.636C65.3444 170.271 65.7181 169.986 66.2012 169.781C66.6842 169.572 67.2266 169.467 67.8281 169.467C68.7396 169.467 69.4619 169.697 69.9951 170.157C70.5329 170.613 70.8018 171.256 70.8018 172.085V175.291C70.8063 175.993 70.9043 176.524 71.0957 176.884V177H69.0996ZM67.4658 175.626C67.7575 175.626 68.0264 175.562 68.2725 175.435C68.5186 175.302 68.7008 175.127 68.8193 174.908V173.637H68.0811C67.0921 173.637 66.5658 173.979 66.502 174.662L66.4951 174.778C66.4951 175.024 66.5817 175.227 66.7549 175.387C66.9281 175.546 67.165 175.626 67.4658 175.626ZM76.4756 171.456C76.2067 171.42 75.9697 171.401 75.7646 171.401C75.0173 171.401 74.5273 171.654 74.2949 172.16V177H72.3193V169.604H74.1855L74.2402 170.485C74.6367 169.806 75.1859 169.467 75.8877 169.467C76.1064 169.467 76.3115 169.496 76.5029 169.556L76.4756 171.456ZM77.0088 173.247C77.0088 172.112 77.2777 171.199 77.8154 170.506C78.3577 169.813 79.0869 169.467 80.0029 169.467C80.8141 169.467 81.4453 169.745 81.8965 170.301L81.9785 169.604H83.7695V176.754C83.7695 177.401 83.6214 177.964 83.3252 178.442C83.0335 178.921 82.6211 179.285 82.0879 179.536C81.5547 179.787 80.9303 179.912 80.2148 179.912C79.6725 179.912 79.1439 179.803 78.6289 179.584C78.1139 179.37 77.7243 179.092 77.46 178.75L78.335 177.547C78.8271 178.098 79.4242 178.374 80.126 178.374C80.6501 178.374 81.0579 178.233 81.3496 177.95C81.6413 177.672 81.7871 177.276 81.7871 176.761V176.364C81.3314 176.879 80.7321 177.137 79.9893 177.137C79.1006 177.137 78.3805 176.79 77.8291 176.098C77.2822 175.4 77.0088 174.478 77.0088 173.329V173.247ZM78.9844 173.391C78.9844 174.061 79.1188 174.587 79.3877 174.97C79.6566 175.348 80.0257 175.537 80.4951 175.537C81.0967 175.537 81.5273 175.312 81.7871 174.86V171.75C81.5228 171.299 81.0967 171.073 80.5088 171.073C80.0348 171.073 79.6611 171.267 79.3877 171.654C79.1188 172.042 78.9844 172.62 78.9844 173.391ZM88.6982 177.137C87.6136 177.137 86.7295 176.804 86.0459 176.139C85.3669 175.473 85.0273 174.587 85.0273 173.479V173.288C85.0273 172.545 85.1709 171.882 85.458 171.299C85.7451 170.711 86.1507 170.26 86.6748 169.945C87.2035 169.626 87.805 169.467 88.4795 169.467C89.4912 169.467 90.2865 169.786 90.8652 170.424C91.4486 171.062 91.7402 171.966 91.7402 173.138V173.944H87.0303C87.0941 174.427 87.2855 174.815 87.6045 175.106C87.9281 175.398 88.3359 175.544 88.8281 175.544C89.5892 175.544 90.1839 175.268 90.6123 174.717L91.583 175.804C91.2868 176.223 90.8857 176.551 90.3799 176.788C89.874 177.021 89.3135 177.137 88.6982 177.137ZM88.4727 171.066C88.0807 171.066 87.7617 171.199 87.5156 171.463C87.2741 171.727 87.1191 172.105 87.0508 172.598H89.7988V172.44C89.7897 172.003 89.6712 171.666 89.4434 171.429C89.2155 171.187 88.8919 171.066 88.4727 171.066Z" fill="black"/>
<defs>
<filter id="filter0_d" x="19" y="50" width="27" height="225" filterUnits="userSpaceOnUse" color-interpolation-filters="sRGB">
<feFlood flood-opacity="0" result="BackgroundImageFix"/>
<feColorMatrix in="SourceAlpha" type="matrix" values="0 0 0 0 0 0 0 0 0 0 0 0 0 0 0 0 0 0 127 0" result="hardAlpha"/>
<feOffset dy="4"/>
<feGaussianBlur stdDeviation="2"/>
<feComposite in2="hardAlpha" operator="out"/>
<feColorMatrix type="matrix" values="0 0 0 0 0 0 0 0 0 0 0 0 0 0 0 0 0 0 0.04 0"/>
<feBlend mode="normal" in2="BackgroundImageFix" result="effect1_dropShadow"/>
<feBlend mode="normal" in="SourceGraphic" in2="effect1_dropShadow" result="shape"/>
</filter>
<filter id="filter1_d" x="73" y="107" width="27" height="147" filterUnits="userSpaceOnUse" color-interpolation-filters="sRGB">
<feFlood flood-opacity="0" result="BackgroundImageFix"/>
<feColorMatrix in="SourceAlpha" type="matrix" values="0 0 0 0 0 0 0 0 0 0 0 0 0 0 0 0 0 0 127 0" result="hardAlpha"/>
<feOffset dy="4"/>
<feGaussianBlur stdDeviation="2"/>
<feComposite in2="hardAlpha" operator="out"/>
<feColorMatrix type="matrix" values="0 0 0 0 0 0 0 0 0 0 0 0 0 0 0 0 0 0 0.04 0"/>
<feBlend mode="normal" in2="BackgroundImageFix" result="effect1_dropShadow"/>
<feBlend mode="normal" in="SourceGraphic" in2="effect1_dropShadow" result="shape"/>
</filter>
<filter id="filter2_d" x="0" y="51.0527" width="120" height="225.915" filterUnits="userSpaceOnUse" color-interpolation-filters="sRGB">
<feFlood flood-opacity="0" result="BackgroundImageFix"/>
<feColorMatrix in="SourceAlpha" type="matrix" values="0 0 0 0 0 0 0 0 0 0 0 0 0 0 0 0 0 0 127 0" result="hardAlpha"/>
<feOffset dy="4"/>
<feGaussianBlur stdDeviation="2"/>
<feComposite in2="hardAlpha" operator="out"/>
<feColorMatrix type="matrix" values="0 0 0 0 0 0 0 0 0 0 0 0 0 0 0 0 0 0 0.04 0"/>
<feBlend mode="normal" in2="BackgroundImageFix" result="effect1_dropShadow"/>
<feBlend mode="normal" in="SourceGraphic" in2="effect1_dropShadow" result="shape"/>
</filter>
</defs>
</svg>
