<svg width="130" height="367" viewBox="0 0 130 367" fill="none" xmlns="http://www.w3.org/2000/svg">
<g filter="url(#filter0_d)">
<rect width="19" height="217" rx="4" transform="matrix(-1 0 0 1 47 75)" fill="#F9F9F9"/>
<rect x="-1" y="1" width="17" height="215" rx="3" transform="matrix(-1 0 0 1 45 75)" stroke="#C4C4C4" stroke-width="2"/>
</g>
<g filter="url(#filter1_d)">
<rect width="19" height="139" rx="4" transform="matrix(-1 0 0 1 101 132)" fill="#F9F9F9"/>
<rect x="-1" y="1" width="17" height="137" rx="3" transform="matrix(-1 0 0 1 99 132)" stroke="#C4C4C4" stroke-width="2"/>
</g>
<g filter="url(#filter2_d)">
<path d="M121 189.51L121 244.306C121 245.905 120.047 247.351 118.577 247.981L14.5773 292.607C11.9376 293.739 9 291.803 9 288.931L9.00001 81.1098C9.00001 78.2268 11.9575 76.2906 14.5998 77.4436L118.6 122.827C120.058 123.463 121 124.902 121 126.493L121 189.51Z" fill="#F9F9F9"/>
<path d="M120 189.51L120 244.306C120 245.505 119.285 246.589 118.183 247.062L14.183 291.688C12.2032 292.537 10 291.085 10 288.931L10 81.1098C10 78.9475 12.2181 77.4954 14.1999 78.3602L118.2 123.743C119.293 124.22 120 125.3 120 126.493L120 189.51Z" stroke="#C4C4C4" stroke-width="2"/>
</g>
<path d="M37 70L42.7735 60H31.2265L37 70ZM38 52C38 51.4477 37.5523 51 37 51C36.4477 51 36 51.4477 36 52H38ZM38 61V52H36V61H38Z" fill="#424242"/>
<circle cx="36.5" cy="35.5" r="10.5" fill="#005FB8"/>
<path d="M37.9561 40H35.9805V32.3848L33.6221 33.1162V31.5098L37.7441 30.0332H37.9561V40Z" fill="white"/>
<path d="M38 316L43.7735 306H32.2265L38 316ZM39 298C39 297.448 38.5523 297 38 297C37.4477 297 37 297.448 37 298H39ZM39 307V298H37V307H39Z" fill="#424242"/>
<circle r="10.5" transform="matrix(1 0 0 -1 37.5 332.5)" fill="#005FB8"/>
<path d="M40.9795 337H34.1572V335.646L37.377 332.215C37.819 331.732 38.1449 331.31 38.3545 330.95C38.5687 330.59 38.6758 330.248 38.6758 329.925C38.6758 329.483 38.5641 329.136 38.3408 328.886C38.1175 328.631 37.7985 328.503 37.3838 328.503C36.9372 328.503 36.584 328.658 36.3242 328.968C36.069 329.273 35.9414 329.676 35.9414 330.178H33.959C33.959 329.572 34.1025 329.018 34.3896 328.517C34.6813 328.015 35.0915 327.623 35.6201 327.341C36.1488 327.054 36.748 326.91 37.418 326.91C38.4434 326.91 39.2386 327.156 39.8037 327.648C40.3734 328.141 40.6582 328.836 40.6582 329.733C40.6582 330.226 40.5306 330.727 40.2754 331.237C40.0202 331.748 39.5827 332.342 38.9629 333.021L36.7002 335.407H40.9795V337Z" fill="white"/>
<path d="M92 296L97.7735 286H86.2265L92 296ZM93 278C93 277.448 92.5523 277 92 277C91.4477 277 91 277.448 91 278H93ZM93 287V278H91V287H93Z" fill="#424242"/>
<circle r="10.5" transform="matrix(1 0 0 -1 91.5 312.5)" fill="#005FB8"/>
<path d="M90.167 311.148H91.2197C91.721 311.148 92.0924 311.023 92.334 310.772C92.5755 310.522 92.6963 310.189 92.6963 309.774C92.6963 309.373 92.5755 309.061 92.334 308.838C92.097 308.615 91.7689 308.503 91.3496 308.503C90.9714 308.503 90.6546 308.608 90.3994 308.817C90.1442 309.022 90.0166 309.291 90.0166 309.624H88.041C88.041 309.104 88.18 308.64 88.458 308.229C88.7406 307.815 89.1325 307.491 89.6338 307.259C90.1396 307.026 90.6956 306.91 91.3018 306.91C92.3545 306.91 93.1794 307.163 93.7764 307.669C94.3734 308.17 94.6719 308.863 94.6719 309.747C94.6719 310.203 94.5329 310.622 94.2549 311.005C93.9769 311.388 93.6123 311.682 93.1611 311.887C93.7217 312.087 94.1387 312.388 94.4121 312.789C94.6901 313.19 94.8291 313.664 94.8291 314.211C94.8291 315.095 94.5055 315.804 93.8584 316.337C93.2158 316.87 92.3636 317.137 91.3018 317.137C90.3083 317.137 89.4948 316.875 88.8613 316.351C88.2324 315.826 87.918 315.134 87.918 314.272H89.8936C89.8936 314.646 90.0326 314.951 90.3105 315.188C90.5931 315.425 90.9395 315.544 91.3496 315.544C91.819 315.544 92.1859 315.421 92.4502 315.175C92.7191 314.924 92.8535 314.594 92.8535 314.184C92.8535 313.19 92.3066 312.693 91.2129 312.693H90.167V311.148Z" fill="white"/>
<rect x="0.5" y="0.5" width="129" height="366" rx="3.5" stroke="#EDEDED" stroke-opacity="0.01"/>
<defs>
<filter id="filter0_d" x="24" y="75" width="27" height="225" filterUnits="userSpaceOnUse" color-interpolation-filters="sRGB">
<feFlood flood-opacity="0" result="BackgroundImageFix"/>
<feColorMatrix in="SourceAlpha" type="matrix" values="0 0 0 0 0 0 0 0 0 0 0 0 0 0 0 0 0 0 127 0" result="hardAlpha"/>
<feOffset dy="4"/>
<feGaussianBlur stdDeviation="2"/>
<feComposite in2="hardAlpha" operator="out"/>
<feColorMatrix type="matrix" values="0 0 0 0 0 0 0 0 0 0 0 0 0 0 0 0 0 0 0.04 0"/>
<feBlend mode="normal" in2="BackgroundImageFix" result="effect1_dropShadow"/>
<feBlend mode="normal" in="SourceGraphic" in2="effect1_dropShadow" result="shape"/>
</filter>
<filter id="filter1_d" x="78" y="132" width="27" height="147" filterUnits="userSpaceOnUse" color-interpolation-filters="sRGB">
<feFlood flood-opacity="0" result="BackgroundImageFix"/>
<feColorMatrix in="SourceAlpha" type="matrix" values="0 0 0 0 0 0 0 0 0 0 0 0 0 0 0 0 0 0 127 0" result="hardAlpha"/>
<feOffset dy="4"/>
<feGaussianBlur stdDeviation="2"/>
<feComposite in2="hardAlpha" operator="out"/>
<feColorMatrix type="matrix" values="0 0 0 0 0 0 0 0 0 0 0 0 0 0 0 0 0 0 0.04 0"/>
<feBlend mode="normal" in2="BackgroundImageFix" result="effect1_dropShadow"/>
<feBlend mode="normal" in="SourceGraphic" in2="effect1_dropShadow" result="shape"/>
</filter>
<filter id="filter2_d" x="5" y="77.1055" width="120" height="223.83" filterUnits="userSpaceOnUse" color-interpolation-filters="sRGB">
<feFlood flood-opacity="0" result="BackgroundImageFix"/>
<feColorMatrix in="SourceAlpha" type="matrix" values="0 0 0 0 0 0 0 0 0 0 0 0 0 0 0 0 0 0 127 0" result="hardAlpha"/>
<feOffset dy="4"/>
<feGaussianBlur stdDeviation="2"/>
<feComposite in2="hardAlpha" operator="out"/>
<feColorMatrix type="matrix" values="0 0 0 0 0 0 0 0 0 0 0 0 0 0 0 0 0 0 0.04 0"/>
<feBlend mode="normal" in2="BackgroundImageFix" result="effect1_dropShadow"/>
<feBlend mode="normal" in="SourceGraphic" in2="effect1_dropShadow" result="shape"/>
</filter>
</defs>
</svg>
