<svg width="120" height="296" viewBox="0 0 120 296" fill="none" xmlns="http://www.w3.org/2000/svg">
<g filter="url(#filter0_d)">
<rect width="19" height="192" rx="2" transform="matrix(-1 0 0 1 42 50)" fill="#E9E9E9"/>
<rect x="-1" y="1" width="17" height="190" rx="1" transform="matrix(-1 0 0 1 40 50)" stroke="#C4C4C4" stroke-width="2"/>
</g>
<g filter="url(#filter1_d)">
<rect width="19" height="173" rx="2" transform="matrix(-1 0 0 1 96 73)" fill="#E9E9E9"/>
<rect x="-1" y="1" width="17" height="171" rx="1" transform="matrix(-1 0 0 1 94 73)" stroke="#C4C4C4" stroke-width="2"/>
</g>
<g filter="url(#filter2_d)">
<path d="M116 164.51L116 220.624C116 221.423 115.523 222.146 114.789 222.462L6.78864 268.803C5.46881 269.37 4 268.402 4 266.965L4.00001 53.0549C4.00001 51.6134 5.47874 50.6453 6.79992 51.2218L114.8 98.3505C115.529 98.6686 116 99.3883 116 100.184L116 164.51Z" fill="#E9E9E9"/>
<path d="M115 164.51L115 220.624C115 221.024 114.762 221.385 114.394 221.543L6.39432 267.884C5.73441 268.168 5 267.684 5 266.965L5.00001 53.0549C5.00001 52.3341 5.73938 51.8501 6.39996 52.1383L114.4 99.267C114.764 99.4261 115 99.7859 115 100.184L115 164.51Z" stroke="#C4C4C4" stroke-width="2"/>
</g>
<path d="M86 68L91.7735 58H80.2265L86 68ZM87 50C87 49.4477 86.5523 49 86 49C85.4477 49 85 49.4477 85 50H87ZM87 59V50H85V59H87Z" fill="black"/>
<circle cx="85.5" cy="33.5" r="10.5" fill="#005FB8"/>
<path d="M88.9795 38H82.1572V36.6465L85.377 33.2148C85.819 32.7318 86.1449 32.3102 86.3545 31.9502C86.5687 31.5902 86.6758 31.2484 86.6758 30.9248C86.6758 30.4827 86.5641 30.1364 86.3408 29.8857C86.1175 29.6305 85.7985 29.5029 85.3838 29.5029C84.9372 29.5029 84.584 29.6579 84.3242 29.9678C84.069 30.2731 83.9414 30.6764 83.9414 31.1777H81.959C81.959 30.5716 82.1025 30.0179 82.3896 29.5166C82.6813 29.0153 83.0915 28.6234 83.6201 28.3408C84.1488 28.0537 84.748 27.9102 85.418 27.9102C86.4434 27.9102 87.2386 28.1562 87.8037 28.6484C88.3734 29.1406 88.6582 29.8356 88.6582 30.7334C88.6582 31.2256 88.5306 31.7269 88.2754 32.2373C88.0202 32.7477 87.5827 33.3424 86.9629 34.0215L84.7002 36.4072H88.9795V38Z" fill="#F7F7F7"/>
<path d="M32 45L37.7735 35H26.2265L32 45ZM33 27C33 26.4477 32.5523 26 32 26C31.4477 26 31 26.4477 31 27H33ZM33 36V27H31V36H33Z" fill="black"/>
<circle cx="31.5" cy="10.5" r="10.5" fill="#005FB8"/>
<path d="M32.9561 15H30.9805V7.38477L28.6221 8.11621V6.50977L32.7441 5.0332H32.9561V15Z" fill="#F7F7F7"/>
<path d="M86 269L91.7735 259H80.2265L86 269ZM87 251C87 250.448 86.5523 250 86 250C85.4477 250 85 250.448 85 251H87ZM87 260V251H85V260H87Z" fill="black"/>
<circle r="10.5" transform="matrix(1 0 0 -1 85.5 285.5)" fill="#005FB8"/>
<path d="M84.167 284.148H85.2197C85.721 284.148 86.0924 284.023 86.334 283.772C86.5755 283.522 86.6963 283.189 86.6963 282.774C86.6963 282.373 86.5755 282.061 86.334 281.838C86.097 281.615 85.7689 281.503 85.3496 281.503C84.9714 281.503 84.6546 281.608 84.3994 281.817C84.1442 282.022 84.0166 282.291 84.0166 282.624H82.041C82.041 282.104 82.18 281.64 82.458 281.229C82.7406 280.815 83.1325 280.491 83.6338 280.259C84.1396 280.026 84.6956 279.91 85.3018 279.91C86.3545 279.91 87.1794 280.163 87.7764 280.669C88.3734 281.17 88.6719 281.863 88.6719 282.747C88.6719 283.203 88.5329 283.622 88.2549 284.005C87.9769 284.388 87.6123 284.682 87.1611 284.887C87.7217 285.087 88.1387 285.388 88.4121 285.789C88.6901 286.19 88.8291 286.664 88.8291 287.211C88.8291 288.095 88.5055 288.804 87.8584 289.337C87.2158 289.87 86.3636 290.137 85.3018 290.137C84.3083 290.137 83.4948 289.875 82.8613 289.351C82.2324 288.826 81.918 288.134 81.918 287.272H83.8936C83.8936 287.646 84.0326 287.951 84.3105 288.188C84.5931 288.425 84.9395 288.544 85.3496 288.544C85.819 288.544 86.1859 288.421 86.4502 288.175C86.7191 287.924 86.8535 287.594 86.8535 287.184C86.8535 286.19 86.3066 285.693 85.2129 285.693H84.167V284.148Z" fill="#F7F7F7"/>
<path d="M38.8701 156V146.047H41.9326C42.8076 146.047 43.5892 146.245 44.2773 146.642C44.9701 147.034 45.5101 147.594 45.8975 148.323C46.2848 149.048 46.4785 149.873 46.4785 150.798V151.256C46.4785 152.181 46.2871 153.004 45.9043 153.724C45.526 154.444 44.9906 155.002 44.2979 155.398C43.6051 155.795 42.8236 155.995 41.9531 156H38.8701ZM40.9209 147.708V154.353H41.9121C42.7142 154.353 43.3271 154.09 43.751 153.566C44.1748 153.042 44.3913 152.293 44.4004 151.317V150.791C44.4004 149.779 44.1908 149.014 43.7715 148.494C43.3522 147.97 42.7393 147.708 41.9326 147.708H40.9209ZM47.5381 152.233C47.5381 151.5 47.6794 150.846 47.9619 150.271C48.2445 149.697 48.6501 149.253 49.1787 148.938C49.7119 148.624 50.3294 148.467 51.0312 148.467C52.0293 148.467 52.8428 148.772 53.4717 149.383C54.1051 149.993 54.4583 150.823 54.5312 151.871L54.5449 152.377C54.5449 153.512 54.2282 154.423 53.5947 155.111C52.9613 155.795 52.1113 156.137 51.0449 156.137C49.9785 156.137 49.1263 155.795 48.4883 155.111C47.8548 154.428 47.5381 153.498 47.5381 152.322V152.233ZM49.5137 152.377C49.5137 153.079 49.6458 153.617 49.9102 153.99C50.1745 154.359 50.5527 154.544 51.0449 154.544C51.5234 154.544 51.8971 154.362 52.166 153.997C52.4349 153.628 52.5693 153.04 52.5693 152.233C52.5693 151.545 52.4349 151.012 52.166 150.634C51.8971 150.256 51.5189 150.066 51.0312 150.066C50.5482 150.066 50.1745 150.256 49.9102 150.634C49.6458 151.007 49.5137 151.589 49.5137 152.377ZM60.1914 155.248C59.7038 155.84 59.0293 156.137 58.168 156.137C57.375 156.137 56.7689 155.909 56.3496 155.453C55.9349 154.997 55.723 154.33 55.7139 153.45V148.604H57.6895V153.382C57.6895 154.152 58.0404 154.537 58.7422 154.537C59.4121 154.537 59.8724 154.305 60.123 153.84V148.604H62.1055V156H60.2461L60.1914 155.248ZM70.2607 152.37C70.2607 153.555 70.0078 154.48 69.502 155.146C68.9961 155.806 68.2897 156.137 67.3828 156.137C66.5807 156.137 65.9404 155.829 65.4619 155.214L65.373 156H63.5957V145.5H65.5713V149.267C66.027 148.733 66.6263 148.467 67.3691 148.467C68.2715 148.467 68.9779 148.799 69.4883 149.465C70.0033 150.126 70.2607 151.058 70.2607 152.261V152.37ZM68.2852 152.227C68.2852 151.479 68.1667 150.935 67.9297 150.593C67.6927 150.246 67.3395 150.073 66.8701 150.073C66.2412 150.073 65.8083 150.331 65.5713 150.846V153.765C65.8128 154.284 66.2503 154.544 66.8838 154.544C67.5218 154.544 67.9411 154.229 68.1416 153.601C68.2373 153.3 68.2852 152.842 68.2852 152.227ZM73.5693 156H71.5869V145.5H73.5693V156ZM78.6074 156.137C77.5228 156.137 76.6387 155.804 75.9551 155.139C75.276 154.473 74.9365 153.587 74.9365 152.479V152.288C74.9365 151.545 75.0801 150.882 75.3672 150.299C75.6543 149.711 76.0599 149.26 76.584 148.945C77.1126 148.626 77.7142 148.467 78.3887 148.467C79.4004 148.467 80.1956 148.786 80.7744 149.424C81.3577 150.062 81.6494 150.966 81.6494 152.138V152.944H76.9395C77.0033 153.427 77.1947 153.815 77.5137 154.106C77.8372 154.398 78.2451 154.544 78.7373 154.544C79.4984 154.544 80.0931 154.268 80.5215 153.717L81.4922 154.804C81.196 155.223 80.7949 155.551 80.2891 155.788C79.7832 156.021 79.2227 156.137 78.6074 156.137ZM78.3818 150.066C77.9899 150.066 77.6709 150.199 77.4248 150.463C77.1833 150.727 77.0283 151.105 76.96 151.598H79.708V151.44C79.6989 151.003 79.5804 150.666 79.3525 150.429C79.1247 150.187 78.8011 150.066 78.3818 150.066ZM42.0693 169.389C42.0693 169.001 41.9326 168.705 41.6592 168.5C41.3857 168.29 40.8936 168.072 40.1826 167.844C39.4717 167.611 38.9089 167.383 38.4941 167.16C37.3639 166.549 36.7988 165.727 36.7988 164.692C36.7988 164.155 36.9492 163.676 37.25 163.257C37.5553 162.833 37.9906 162.503 38.5557 162.266C39.1253 162.029 39.7633 161.91 40.4697 161.91C41.1807 161.91 41.8141 162.04 42.3701 162.3C42.9261 162.555 43.3568 162.917 43.6621 163.387C43.972 163.856 44.127 164.389 44.127 164.986H42.0762C42.0762 164.531 41.9326 164.177 41.6455 163.927C41.3584 163.672 40.9551 163.544 40.4355 163.544C39.9342 163.544 39.5446 163.651 39.2666 163.865C38.9886 164.075 38.8496 164.353 38.8496 164.699C38.8496 165.023 39.0114 165.294 39.335 165.513C39.6631 165.731 40.1439 165.937 40.7773 166.128C41.944 166.479 42.7939 166.914 43.3271 167.434C43.8604 167.953 44.127 168.6 44.127 169.375C44.127 170.236 43.8011 170.913 43.1494 171.405C42.4977 171.893 41.6204 172.137 40.5176 172.137C39.752 172.137 39.0547 171.998 38.4258 171.72C37.7969 171.437 37.3161 171.052 36.9834 170.564C36.6553 170.077 36.4912 169.512 36.4912 168.869H38.5488C38.5488 169.967 39.2051 170.517 40.5176 170.517C41.0052 170.517 41.3857 170.419 41.6592 170.223C41.9326 170.022 42.0693 169.744 42.0693 169.389ZM49.8213 171.248C49.3337 171.84 48.6592 172.137 47.7979 172.137C47.0049 172.137 46.3988 171.909 45.9795 171.453C45.5648 170.997 45.3529 170.33 45.3438 169.45V164.604H47.3193V169.382C47.3193 170.152 47.6702 170.537 48.3721 170.537C49.042 170.537 49.5023 170.305 49.7529 169.84V164.604H51.7354V172H49.876L49.8213 171.248ZM56.3018 170.544C56.6663 170.544 56.9626 170.444 57.1904 170.243C57.4183 170.043 57.5368 169.776 57.5459 169.443H59.3984C59.3939 169.945 59.2572 170.405 58.9883 170.824C58.7194 171.239 58.3503 171.562 57.8809 171.795C57.416 172.023 56.901 172.137 56.3359 172.137C55.2786 172.137 54.4447 171.802 53.834 171.132C53.2233 170.457 52.918 169.528 52.918 168.343V168.213C52.918 167.074 53.221 166.164 53.8271 165.485C54.4333 164.806 55.265 164.467 56.3223 164.467C57.2474 164.467 57.988 164.731 58.5439 165.26C59.1045 165.784 59.3893 166.483 59.3984 167.358H57.5459C57.5368 166.976 57.4183 166.666 57.1904 166.429C56.9626 166.187 56.6618 166.066 56.2881 166.066C55.8278 166.066 55.4792 166.235 55.2422 166.572C55.0098 166.905 54.8936 167.447 54.8936 168.199V168.404C54.8936 169.165 55.0098 169.712 55.2422 170.045C55.4746 170.378 55.8278 170.544 56.3018 170.544ZM62.8916 162.785V164.604H64.1562V166.053H62.8916V169.744C62.8916 170.018 62.944 170.214 63.0488 170.332C63.1536 170.451 63.3542 170.51 63.6504 170.51C63.8691 170.51 64.0628 170.494 64.2314 170.462V171.959C63.8441 172.077 63.4453 172.137 63.0352 172.137C61.6497 172.137 60.9434 171.437 60.916 170.038V166.053H59.8359V164.604H60.916V162.785H62.8916ZM67.3418 172H65.3594V164.604H67.3418V172ZM65.2432 162.689C65.2432 162.393 65.3411 162.149 65.5371 161.958C65.7376 161.767 66.0088 161.671 66.3506 161.671C66.6878 161.671 66.9567 161.767 67.1572 161.958C67.3577 162.149 67.458 162.393 67.458 162.689C67.458 162.99 67.3555 163.236 67.1504 163.428C66.9499 163.619 66.6833 163.715 66.3506 163.715C66.0179 163.715 65.749 163.619 65.5439 163.428C65.3434 163.236 65.2432 162.99 65.2432 162.689ZM68.668 168.233C68.668 167.5 68.8092 166.846 69.0918 166.271C69.3743 165.697 69.7799 165.253 70.3086 164.938C70.8418 164.624 71.4593 164.467 72.1611 164.467C73.1592 164.467 73.9727 164.772 74.6016 165.383C75.235 165.993 75.5882 166.823 75.6611 167.871L75.6748 168.377C75.6748 169.512 75.3581 170.423 74.7246 171.111C74.0911 171.795 73.2412 172.137 72.1748 172.137C71.1084 172.137 70.2562 171.795 69.6182 171.111C68.9847 170.428 68.668 169.498 68.668 168.322V168.233ZM70.6436 168.377C70.6436 169.079 70.7757 169.617 71.04 169.99C71.3044 170.359 71.6826 170.544 72.1748 170.544C72.6533 170.544 73.027 170.362 73.2959 169.997C73.5648 169.628 73.6992 169.04 73.6992 168.233C73.6992 167.545 73.5648 167.012 73.2959 166.634C73.027 166.256 72.6488 166.066 72.1611 166.066C71.6781 166.066 71.3044 166.256 71.04 166.634C70.7757 167.007 70.6436 167.589 70.6436 168.377ZM78.71 164.604L78.7715 165.458C79.3001 164.797 80.0088 164.467 80.8975 164.467C81.6813 164.467 82.2646 164.697 82.6475 165.157C83.0303 165.618 83.2262 166.306 83.2354 167.222V172H81.2598V167.27C81.2598 166.85 81.1686 166.547 80.9863 166.36C80.804 166.169 80.501 166.073 80.0771 166.073C79.5212 166.073 79.1042 166.31 78.8262 166.784V172H76.8506V164.604H78.71Z" fill="black"/>
<defs>
<filter id="filter0_d" x="19" y="50" width="27" height="200" filterUnits="userSpaceOnUse" color-interpolation-filters="sRGB">
<feFlood flood-opacity="0" result="BackgroundImageFix"/>
<feColorMatrix in="SourceAlpha" type="matrix" values="0 0 0 0 0 0 0 0 0 0 0 0 0 0 0 0 0 0 127 0" result="hardAlpha"/>
<feOffset dy="4"/>
<feGaussianBlur stdDeviation="2"/>
<feComposite in2="hardAlpha" operator="out"/>
<feColorMatrix type="matrix" values="0 0 0 0 0 0 0 0 0 0 0 0 0 0 0 0 0 0 0.04 0"/>
<feBlend mode="normal" in2="BackgroundImageFix" result="effect1_dropShadow"/>
<feBlend mode="normal" in="SourceGraphic" in2="effect1_dropShadow" result="shape"/>
</filter>
<filter id="filter1_d" x="73" y="73" width="27" height="181" filterUnits="userSpaceOnUse" color-interpolation-filters="sRGB">
<feFlood flood-opacity="0" result="BackgroundImageFix"/>
<feColorMatrix in="SourceAlpha" type="matrix" values="0 0 0 0 0 0 0 0 0 0 0 0 0 0 0 0 0 0 127 0" result="hardAlpha"/>
<feOffset dy="4"/>
<feGaussianBlur stdDeviation="2"/>
<feComposite in2="hardAlpha" operator="out"/>
<feColorMatrix type="matrix" values="0 0 0 0 0 0 0 0 0 0 0 0 0 0 0 0 0 0 0.04 0"/>
<feBlend mode="normal" in2="BackgroundImageFix" result="effect1_dropShadow"/>
<feBlend mode="normal" in="SourceGraphic" in2="effect1_dropShadow" result="shape"/>
</filter>
<filter id="filter2_d" x="0" y="51.0527" width="120" height="225.915" filterUnits="userSpaceOnUse" color-interpolation-filters="sRGB">
<feFlood flood-opacity="0" result="BackgroundImageFix"/>
<feColorMatrix in="SourceAlpha" type="matrix" values="0 0 0 0 0 0 0 0 0 0 0 0 0 0 0 0 0 0 127 0" result="hardAlpha"/>
<feOffset dy="4"/>
<feGaussianBlur stdDeviation="2"/>
<feComposite in2="hardAlpha" operator="out"/>
<feColorMatrix type="matrix" values="0 0 0 0 0 0 0 0 0 0 0 0 0 0 0 0 0 0 0.04 0"/>
<feBlend mode="normal" in2="BackgroundImageFix" result="effect1_dropShadow"/>
<feBlend mode="normal" in="SourceGraphic" in2="effect1_dropShadow" result="shape"/>
</filter>
</defs>
</svg>
