<svg width="130" height="367" viewBox="0 0 130 367" fill="none" xmlns="http://www.w3.org/2000/svg">
<g filter="url(#filter0_d)">
<rect width="19" height="192" rx="4" transform="matrix(-1 0 0 1 47 75)" fill="#F9F9F9"/>
<rect x="-1" y="1" width="17" height="190" rx="3" transform="matrix(-1 0 0 1 45 75)" stroke="#C4C4C4" stroke-width="2"/>
</g>
<g filter="url(#filter1_d)">
<rect width="19" height="173" rx="4" transform="matrix(-1 0 0 1 101 98)" fill="#F9F9F9"/>
<rect x="-1" y="1" width="17" height="171" rx="3" transform="matrix(-1 0 0 1 99 98)" stroke="#C4C4C4" stroke-width="2"/>
</g>
<g filter="url(#filter2_d)">
<path d="M121 189.51L121 244.306C121 245.905 120.047 247.351 118.577 247.981L14.5773 292.607C11.9376 293.739 9 291.803 9 288.931L9.00001 81.1098C9.00001 78.2268 11.9575 76.2906 14.5998 77.4436L118.6 122.827C120.058 123.463 121 124.902 121 126.493L121 189.51Z" fill="#F9F9F9"/>
<path d="M120 189.51L120 244.306C120 245.505 119.285 246.589 118.183 247.062L14.183 291.688C12.2032 292.537 10 291.085 10 288.931L10 81.1098C10 78.9475 12.2181 77.4954 14.1999 78.3602L118.2 123.743C119.293 124.22 120 125.3 120 126.493L120 189.51Z" stroke="#C4C4C4" stroke-width="2"/>
</g>
<path d="M91 93L96.7735 83H85.2265L91 93ZM92 75C92 74.4477 91.5523 74 91 74C90.4477 74 90 74.4477 90 75H92ZM92 84V75H90V84H92Z" fill="#424242"/>
<circle cx="90.5" cy="58.5" r="10.5" fill="#005FB8"/>
<path d="M93.9795 63H87.1572V61.6465L90.377 58.2148C90.819 57.7318 91.1449 57.3102 91.3545 56.9502C91.5687 56.5902 91.6758 56.2484 91.6758 55.9248C91.6758 55.4827 91.5641 55.1364 91.3408 54.8857C91.1175 54.6305 90.7985 54.5029 90.3838 54.5029C89.9372 54.5029 89.584 54.6579 89.3242 54.9678C89.069 55.2731 88.9414 55.6764 88.9414 56.1777H86.959C86.959 55.5716 87.1025 55.0179 87.3896 54.5166C87.6813 54.0153 88.0915 53.6234 88.6201 53.3408C89.1488 53.0537 89.748 52.9102 90.418 52.9102C91.4434 52.9102 92.2386 53.1562 92.8037 53.6484C93.3734 54.1406 93.6582 54.8356 93.6582 55.7334C93.6582 56.2256 93.5306 56.7269 93.2754 57.2373C93.0202 57.7477 92.5827 58.3424 91.9629 59.0215L89.7002 61.4072H93.9795V63Z" fill="white"/>
<path d="M37 70L42.7735 60H31.2265L37 70ZM38 52C38 51.4477 37.5523 51 37 51C36.4477 51 36 51.4477 36 52H38ZM38 61V52H36V61H38Z" fill="#424242"/>
<circle cx="36.5" cy="35.5" r="10.5" fill="#005FB8"/>
<path d="M37.9561 40H35.9805V32.3848L33.6221 33.1162V31.5098L37.7441 30.0332H37.9561V40Z" fill="white"/>
<path d="M91 294L96.7735 284H85.2265L91 294ZM92 276C92 275.448 91.5523 275 91 275C90.4477 275 90 275.448 90 276H92ZM92 285V276H90V285H92Z" fill="#424242"/>
<circle r="10.5" transform="matrix(1 0 0 -1 90.5 310.5)" fill="#005FB8"/>
<path d="M89.167 309.148H90.2197C90.721 309.148 91.0924 309.023 91.334 308.772C91.5755 308.522 91.6963 308.189 91.6963 307.774C91.6963 307.373 91.5755 307.061 91.334 306.838C91.097 306.615 90.7689 306.503 90.3496 306.503C89.9714 306.503 89.6546 306.608 89.3994 306.817C89.1442 307.022 89.0166 307.291 89.0166 307.624H87.041C87.041 307.104 87.18 306.64 87.458 306.229C87.7406 305.815 88.1325 305.491 88.6338 305.259C89.1396 305.026 89.6956 304.91 90.3018 304.91C91.3545 304.91 92.1794 305.163 92.7764 305.669C93.3734 306.17 93.6719 306.863 93.6719 307.747C93.6719 308.203 93.5329 308.622 93.2549 309.005C92.9769 309.388 92.6123 309.682 92.1611 309.887C92.7217 310.087 93.1387 310.388 93.4121 310.789C93.6901 311.19 93.8291 311.664 93.8291 312.211C93.8291 313.095 93.5055 313.804 92.8584 314.337C92.2158 314.87 91.3636 315.137 90.3018 315.137C89.3083 315.137 88.4948 314.875 87.8613 314.351C87.2324 313.826 86.918 313.134 86.918 312.272H88.8936C88.8936 312.646 89.0326 312.951 89.3105 313.188C89.5931 313.425 89.9395 313.544 90.3496 313.544C90.819 313.544 91.1859 313.421 91.4502 313.175C91.7191 312.924 91.8535 312.594 91.8535 312.184C91.8535 311.19 91.3066 310.693 90.2129 310.693H89.167V309.148Z" fill="white"/>
<rect x="0.5" y="0.5" width="129" height="366" rx="3.5" stroke="#EDEDED" stroke-opacity="0.01"/>
<defs>
<filter id="filter0_d" x="24" y="75" width="27" height="200" filterUnits="userSpaceOnUse" color-interpolation-filters="sRGB">
<feFlood flood-opacity="0" result="BackgroundImageFix"/>
<feColorMatrix in="SourceAlpha" type="matrix" values="0 0 0 0 0 0 0 0 0 0 0 0 0 0 0 0 0 0 127 0" result="hardAlpha"/>
<feOffset dy="4"/>
<feGaussianBlur stdDeviation="2"/>
<feComposite in2="hardAlpha" operator="out"/>
<feColorMatrix type="matrix" values="0 0 0 0 0 0 0 0 0 0 0 0 0 0 0 0 0 0 0.04 0"/>
<feBlend mode="normal" in2="BackgroundImageFix" result="effect1_dropShadow"/>
<feBlend mode="normal" in="SourceGraphic" in2="effect1_dropShadow" result="shape"/>
</filter>
<filter id="filter1_d" x="78" y="98" width="27" height="181" filterUnits="userSpaceOnUse" color-interpolation-filters="sRGB">
<feFlood flood-opacity="0" result="BackgroundImageFix"/>
<feColorMatrix in="SourceAlpha" type="matrix" values="0 0 0 0 0 0 0 0 0 0 0 0 0 0 0 0 0 0 127 0" result="hardAlpha"/>
<feOffset dy="4"/>
<feGaussianBlur stdDeviation="2"/>
<feComposite in2="hardAlpha" operator="out"/>
<feColorMatrix type="matrix" values="0 0 0 0 0 0 0 0 0 0 0 0 0 0 0 0 0 0 0.04 0"/>
<feBlend mode="normal" in2="BackgroundImageFix" result="effect1_dropShadow"/>
<feBlend mode="normal" in="SourceGraphic" in2="effect1_dropShadow" result="shape"/>
</filter>
<filter id="filter2_d" x="5" y="77.1055" width="120" height="223.83" filterUnits="userSpaceOnUse" color-interpolation-filters="sRGB">
<feFlood flood-opacity="0" result="BackgroundImageFix"/>
<feColorMatrix in="SourceAlpha" type="matrix" values="0 0 0 0 0 0 0 0 0 0 0 0 0 0 0 0 0 0 127 0" result="hardAlpha"/>
<feOffset dy="4"/>
<feGaussianBlur stdDeviation="2"/>
<feComposite in2="hardAlpha" operator="out"/>
<feColorMatrix type="matrix" values="0 0 0 0 0 0 0 0 0 0 0 0 0 0 0 0 0 0 0.04 0"/>
<feBlend mode="normal" in2="BackgroundImageFix" result="effect1_dropShadow"/>
<feBlend mode="normal" in="SourceGraphic" in2="effect1_dropShadow" result="shape"/>
</filter>
</defs>
</svg>
