<svg width="130" height="367" viewBox="0 0 130 367" fill="none" xmlns="http://www.w3.org/2000/svg">
<g filter="url(#filter0_d)">
<rect width="19" height="166" rx="4" transform="matrix(-1 0 0 1 47 74)" fill="#F9F9F9"/>
<rect x="-1" y="1" width="17" height="164" rx="3" transform="matrix(-1 0 0 1 45 74)" stroke="#C4C4C4" stroke-width="2"/>
</g>
<g filter="url(#filter1_d)">
<rect width="19" height="112" rx="4" transform="matrix(-1 0 0 1 101 158)" fill="#F9F9F9"/>
<rect x="-1" y="1" width="17" height="110" rx="3" transform="matrix(-1 0 0 1 99 158)" stroke="#C4C4C4" stroke-width="2"/>
</g>
<g filter="url(#filter2_d)">
<path d="M121 188.51L121 243.306C121 244.905 120.047 246.351 118.577 246.981L14.5773 291.607C11.9376 292.739 9 290.803 9 287.931L9.00001 80.1098C9.00001 77.2268 11.9575 75.2906 14.5998 76.4436L118.6 121.827C120.058 122.463 121 123.902 121 125.493L121 188.51Z" fill="#F9F9F9"/>
<path d="M120 188.51L120 243.306C120 244.505 119.285 245.589 118.183 246.062L14.183 290.688C12.2032 291.537 10 290.085 10 287.931L10 80.1098C10 77.9475 12.2181 76.4954 14.1999 77.3602L118.2 122.743C119.293 123.22 120 124.3 120 125.493L120 188.51Z" stroke="#C4C4C4" stroke-width="2"/>
</g>
<path d="M37 69L42.7735 59H31.2265L37 69ZM38 51C38 50.4477 37.5523 50 37 50C36.4477 50 36 50.4477 36 51H38ZM38 60V51H36V60H38Z" fill="#424242"/>
<circle cx="36.5" cy="34.5" r="10.5" fill="#005FB8"/>
<path d="M37.9561 39H35.9805V31.3848L33.6221 32.1162V30.5098L37.7441 29.0332H37.9561V39Z" fill="white"/>
<path d="M92 294L97.7735 284H86.2265L92 294ZM93 276C93 275.448 92.5523 275 92 275C91.4477 275 91 275.448 91 276H93ZM93 285V276H91V285H93Z" fill="#424242"/>
<circle r="10.5" transform="matrix(1 0 0 -1 91.5 310.5)" fill="#005FB8"/>
<path d="M94.9795 315H88.1572V313.646L91.377 310.215C91.819 309.732 92.1449 309.31 92.3545 308.95C92.5687 308.59 92.6758 308.248 92.6758 307.925C92.6758 307.483 92.5641 307.136 92.3408 306.886C92.1175 306.631 91.7985 306.503 91.3838 306.503C90.9372 306.503 90.584 306.658 90.3242 306.968C90.069 307.273 89.9414 307.676 89.9414 308.178H87.959C87.959 307.572 88.1025 307.018 88.3896 306.517C88.6813 306.015 89.0915 305.623 89.6201 305.341C90.1488 305.054 90.748 304.91 91.418 304.91C92.4434 304.91 93.2386 305.156 93.8037 305.648C94.3734 306.141 94.6582 306.836 94.6582 307.733C94.6582 308.226 94.5306 308.727 94.2754 309.237C94.0202 309.748 93.5827 310.342 92.9629 311.021L90.7002 313.407H94.9795V315Z" fill="white"/>
<rect x="0.5" y="0.5" width="129" height="366" rx="3.5" stroke="#EDEDED" stroke-opacity="0.01"/>
<defs>
<filter id="filter0_d" x="24" y="74" width="27" height="174" filterUnits="userSpaceOnUse" color-interpolation-filters="sRGB">
<feFlood flood-opacity="0" result="BackgroundImageFix"/>
<feColorMatrix in="SourceAlpha" type="matrix" values="0 0 0 0 0 0 0 0 0 0 0 0 0 0 0 0 0 0 127 0" result="hardAlpha"/>
<feOffset dy="4"/>
<feGaussianBlur stdDeviation="2"/>
<feComposite in2="hardAlpha" operator="out"/>
<feColorMatrix type="matrix" values="0 0 0 0 0 0 0 0 0 0 0 0 0 0 0 0 0 0 0.04 0"/>
<feBlend mode="normal" in2="BackgroundImageFix" result="effect1_dropShadow"/>
<feBlend mode="normal" in="SourceGraphic" in2="effect1_dropShadow" result="shape"/>
</filter>
<filter id="filter1_d" x="78" y="158" width="27" height="120" filterUnits="userSpaceOnUse" color-interpolation-filters="sRGB">
<feFlood flood-opacity="0" result="BackgroundImageFix"/>
<feColorMatrix in="SourceAlpha" type="matrix" values="0 0 0 0 0 0 0 0 0 0 0 0 0 0 0 0 0 0 127 0" result="hardAlpha"/>
<feOffset dy="4"/>
<feGaussianBlur stdDeviation="2"/>
<feComposite in2="hardAlpha" operator="out"/>
<feColorMatrix type="matrix" values="0 0 0 0 0 0 0 0 0 0 0 0 0 0 0 0 0 0 0.04 0"/>
<feBlend mode="normal" in2="BackgroundImageFix" result="effect1_dropShadow"/>
<feBlend mode="normal" in="SourceGraphic" in2="effect1_dropShadow" result="shape"/>
</filter>
<filter id="filter2_d" x="5" y="76.1055" width="120" height="223.83" filterUnits="userSpaceOnUse" color-interpolation-filters="sRGB">
<feFlood flood-opacity="0" result="BackgroundImageFix"/>
<feColorMatrix in="SourceAlpha" type="matrix" values="0 0 0 0 0 0 0 0 0 0 0 0 0 0 0 0 0 0 127 0" result="hardAlpha"/>
<feOffset dy="4"/>
<feGaussianBlur stdDeviation="2"/>
<feComposite in2="hardAlpha" operator="out"/>
<feColorMatrix type="matrix" values="0 0 0 0 0 0 0 0 0 0 0 0 0 0 0 0 0 0 0.04 0"/>
<feBlend mode="normal" in2="BackgroundImageFix" result="effect1_dropShadow"/>
<feBlend mode="normal" in="SourceGraphic" in2="effect1_dropShadow" result="shape"/>
</filter>
</defs>
</svg>
