<svg width="261" height="154" viewBox="0 0 261 154" fill="none" xmlns="http://www.w3.org/2000/svg">
<path d="M21.491 14.7555C128.371 32.4495 187.637 59.8282 254.714 108.192" stroke="#C4C4C4" stroke-width="4"/>
<path d="M6.33793 59.9124C102.125 81.1111 156.593 105.447 219.58 145.436" stroke="#5C5C5C" stroke-width="2" stroke-dasharray="8 8"/>
<circle cx="9.24312" cy="61.6591" r="5.99678" transform="rotate(12.4509 9.24312 61.6591)" fill="#C4C4C4" stroke="#5C5C5C" stroke-width="2"/>
<circle cx="50.1975" cy="71.0742" r="5.99678" transform="rotate(12.4509 50.1975 71.0742)" fill="#C4C4C4" stroke="#5C5C5C" stroke-width="2"/>
<circle cx="86.6569" cy="81.8095" r="5.99678" transform="rotate(12.4509 86.6569 81.8095)" fill="#C4C4C4" stroke="#5C5C5C" stroke-width="2"/>
<circle cx="121.165" cy="94.0888" r="5.99678" transform="rotate(12.4509 121.165 94.0888)" fill="#C4C4C4" stroke="#5C5C5C" stroke-width="2"/>
<circle cx="153.634" cy="107.706" r="5.99678" transform="rotate(12.4509 153.634 107.706)" fill="#C4C4C4" stroke="#5C5C5C" stroke-width="2"/>
<circle cx="188.287" cy="125.643" r="5.99678" transform="rotate(12.4509 188.287 125.643)" fill="#C4C4C4" stroke="#5C5C5C" stroke-width="2"/>
<circle cx="218.941" cy="145.175" r="5.99678" transform="rotate(12.4509 218.941 145.175)" fill="#C4C4C4" stroke="#5C5C5C" stroke-width="2"/>
<path d="M129 84L143.584 74.6555L128.199 66.698L129 84ZM142.668 54.3109L133.87 71.3199L136.535 72.6982L145.332 55.6891L142.668 54.3109Z" fill="#5C5C5C"/>
</svg>
