<svg width="255" height="167" viewBox="0 0 255 167" fill="none" xmlns="http://www.w3.org/2000/svg">
<rect x="6" y="89" width="14" height="247" rx="3" transform="rotate(-90 6 89)" fill="#F9F9F9" stroke="#C4C4C4" stroke-width="2"/>
<path d="M15.9257 33.6492L23.9257 36.2445C25.1625 36.6457 26 37.7979 26 39.0981V130.661C26 131.872 25.2723 132.964 24.1548 133.43L16.1549 136.766C14.1787 137.591 12 136.139 12 133.998V36.5028C12 34.4653 13.9876 33.0205 15.9257 33.6492Z" fill="#F9F9F9" stroke="#C4C4C4" stroke-width="2"/>
<path d="M166.926 33.6492L174.926 36.2445C176.162 36.6457 177 37.7979 177 39.0981V130.661C177 131.872 176.272 132.964 175.155 133.43L167.155 136.766C165.179 137.591 163 136.139 163 133.998V36.5028C163 34.4653 164.988 33.0205 166.926 33.6492Z" fill="#F9F9F9" stroke="#C4C4C4" stroke-width="2"/>
<path d="M92.9257 33.6492L100.926 36.2445C102.162 36.6457 103 37.7979 103 39.0981V130.661C103 131.872 102.272 132.964 101.155 133.43L93.1549 136.766C91.1787 137.591 89 136.139 89 133.998V36.5028C89 34.4653 90.9876 33.0205 92.9257 33.6492Z" fill="#F9F9F9" stroke="#C4C4C4" stroke-width="2"/>
<path d="M243.926 33.6492L251.926 36.2445C253.162 36.6457 254 37.7979 254 39.0981V130.661C254 131.872 253.272 132.964 252.155 133.43L244.155 136.766C242.179 137.591 240 136.139 240 133.998V36.5028C240 34.4653 241.988 33.0205 243.926 33.6492Z" fill="#F9F9F9" stroke="#C4C4C4" stroke-width="2"/>
<path d="M52.9257 133.351L60.9257 130.756C62.1625 130.354 63 129.202 63 127.902V36.3391C63 35.1284 62.2723 34.0363 61.1548 33.5703L53.1549 30.2335C51.1787 29.4093 49 30.8612 49 33.0023V130.497C49 132.535 50.9876 133.979 52.9257 133.351Z" fill="#F9F9F9" stroke="#C4C4C4" stroke-width="2"/>
<path d="M203.926 133.351L211.926 130.756C213.162 130.354 214 129.202 214 127.902V36.3391C214 35.1284 213.272 34.0363 212.155 33.5703L204.155 30.2335C202.179 29.4093 200 30.8612 200 33.0023V130.497C200 132.535 201.988 133.979 203.926 133.351Z" fill="#F9F9F9" stroke="#C4C4C4" stroke-width="2"/>
<path d="M129.926 133.351L137.926 130.756C139.162 130.354 140 129.202 140 127.902V36.3391C140 35.1284 139.272 34.0363 138.155 33.5703L130.155 30.2335C128.179 29.4093 126 30.8612 126 33.0023V130.497C126 132.535 127.988 133.979 129.926 133.351Z" fill="#F9F9F9" stroke="#C4C4C4" stroke-width="2"/>
<path d="M4 1H12C13.6569 1 15 2.34315 15 4V85.25V163C15 164.657 13.6569 166 12 166H4C2.34315 166 1 164.657 1 163V4C1 2.34314 2.34314 1 4 1Z" fill="#F9F9F9" stroke="#C4C4C4" stroke-width="2"/>
<path d="M155 1H163C164.657 1 166 2.34315 166 4V85.25V163C166 164.657 164.657 166 163 166H155C153.343 166 152 164.657 152 163V4C152 2.34314 153.343 1 155 1Z" fill="#F9F9F9" stroke="#C4C4C4" stroke-width="2"/>
<path d="M81 1H89C90.6569 1 92 2.34315 92 4V85.25V163C92 164.657 90.6569 166 89 166H81C79.3431 166 78 164.657 78 163V4C78 2.34314 79.3431 1 81 1Z" fill="#F9F9F9" stroke="#C4C4C4" stroke-width="2"/>
<path d="M232 1H240C241.657 1 243 2.34315 243 4V85.25V163C243 164.657 241.657 166 240 166H232C230.343 166 229 164.657 229 163V4C229 2.34314 230.343 1 232 1Z" fill="#F9F9F9" stroke="#C4C4C4" stroke-width="2"/>
<path d="M41 166H49C50.6569 166 52 164.657 52 163V81.75V4C52 2.34315 50.6569 1 49 1H41C39.3431 1 38 2.34314 38 4V163C38 164.657 39.3431 166 41 166Z" fill="#F9F9F9" stroke="#C4C4C4" stroke-width="2"/>
<path d="M192 166H200C201.657 166 203 164.657 203 163V81.75V4C203 2.34315 201.657 1 200 1H192C190.343 1 189 2.34314 189 4V163C189 164.657 190.343 166 192 166Z" fill="#F9F9F9" stroke="#C4C4C4" stroke-width="2"/>
<path d="M118 166H126C127.657 166 129 164.657 129 163V81.75V4C129 2.34315 127.657 1 126 1H118C116.343 1 115 2.34314 115 4V163C115 164.657 116.343 166 118 166Z" fill="#F9F9F9" stroke="#C4C4C4" stroke-width="2"/>
<rect x="5" y="5" width="6" height="44" fill="#C4C4C4"/>
<rect x="156" y="5" width="6" height="44" fill="#C4C4C4"/>
<rect x="82" y="5" width="6" height="44" fill="#C4C4C4"/>
<rect x="233" y="5" width="6" height="44" fill="#C4C4C4"/>
<rect width="6" height="44" transform="matrix(1 0 0 -1 42 162)" fill="#C4C4C4"/>
<rect width="6" height="44" transform="matrix(1 0 0 -1 193 162)" fill="#C4C4C4"/>
<rect width="6" height="44" transform="matrix(1 0 0 -1 119 162)" fill="#C4C4C4"/>
<rect x="5" y="52" width="6" height="57" fill="#C4C4C4"/>
<rect x="156" y="52" width="6" height="57" fill="#C4C4C4"/>
<rect x="82" y="52" width="6" height="57" fill="#C4C4C4"/>
<rect x="233" y="52" width="6" height="57" fill="#C4C4C4"/>
<rect width="6" height="57" transform="matrix(1 0 0 -1 42 115)" fill="#C4C4C4"/>
<rect width="6" height="57" transform="matrix(1 0 0 -1 193 115)" fill="#C4C4C4"/>
<rect width="6" height="57" transform="matrix(1 0 0 -1 119 115)" fill="#C4C4C4"/>
<rect x="5" y="112" width="6" height="50" fill="#C4C4C4"/>
<rect x="156" y="112" width="6" height="50" fill="#C4C4C4"/>
<rect x="82" y="112" width="6" height="50" fill="#C4C4C4"/>
<rect x="233" y="112" width="6" height="50" fill="#C4C4C4"/>
<rect width="6" height="50" transform="matrix(1 0 0 -1 42 55)" fill="#C4C4C4"/>
<rect width="6" height="50" transform="matrix(1 0 0 -1 193 55)" fill="#C4C4C4"/>
<rect width="6" height="50" transform="matrix(1 0 0 -1 119 55)" fill="#C4C4C4"/>
</svg>
