<svg width="120" height="319" viewBox="0 0 120 319" fill="none" xmlns="http://www.w3.org/2000/svg">
<g filter="url(#filter0_d)">
<rect width="19" height="219" rx="2" transform="matrix(-1 0 0 1 36 50)" fill="#E9E9E9"/>
<rect x="-1" y="1" width="17" height="217" rx="1" transform="matrix(-1 0 0 1 34 50)" stroke="#C4C4C4" stroke-width="2"/>
</g>
<g filter="url(#filter1_d)">
<rect width="19" height="192" rx="2" transform="matrix(-1 0 0 1 71 63)" fill="#E9E9E9"/>
<rect x="-1" y="1" width="17" height="190" rx="1" transform="matrix(-1 0 0 1 69 63)" stroke="#C4C4C4" stroke-width="2"/>
</g>
<g filter="url(#filter2_d)">
<rect width="19" height="160" rx="2" transform="matrix(-1 0 0 1 106 79)" fill="#E9E9E9"/>
<rect x="-1" y="1" width="17" height="158" rx="1" transform="matrix(-1 0 0 1 104 79)" stroke="#C4C4C4" stroke-width="2"/>
</g>
<g filter="url(#filter3_d)">
<path d="M116 163.51L116 219.624C116 220.423 115.523 221.146 114.789 221.462L6.78864 267.803C5.46881 268.37 4 267.402 4 265.965L4.00001 52.0549C4.00001 50.6134 5.47874 49.6453 6.79992 50.2218L114.8 97.3505C115.529 97.6686 116 98.3883 116 99.1836L116 163.51Z" fill="#E9E9E9"/>
<path d="M115 163.51L115 219.624C115 220.024 114.762 220.385 114.394 220.543L6.39432 266.884C5.73441 267.168 5 266.684 5 265.965L5.00001 52.0549C5.00001 51.3341 5.73938 50.8501 6.39996 51.1383L114.4 98.267C114.764 98.4261 115 98.7859 115 99.1836L115 163.51Z" stroke="#C4C4C4" stroke-width="2"/>
</g>
<path d="M25 45L30.7735 35H19.2265L25 45ZM26 27C26 26.4477 25.5523 26 25 26C24.4477 26 24 26.4477 24 27H26ZM26 36V27H24V36H26Z" fill="black"/>
<circle cx="25.5" cy="10.5" r="10.5" fill="#005FB8"/>
<path d="M26.9561 15H24.9805V7.38477L22.6221 8.11621V6.50977L26.7441 5.0332H26.9561V15Z" fill="#F7F7F7"/>
<path d="M96 74L101.774 64H90.2265L96 74ZM97 56C97 55.4477 96.5523 55 96 55C95.4477 55 95 55.4477 95 56H97ZM97 65V56H95V65H97Z" fill="black"/>
<circle cx="96.5" cy="39.5" r="10.5" fill="#005FB8"/>
<path d="M93.4512 39.1055L94.0254 34.0469H99.6035V35.6943H95.6455L95.3994 37.834C95.8688 37.5833 96.3678 37.458 96.8965 37.458C97.8444 37.458 98.5872 37.752 99.125 38.3398C99.6628 38.9277 99.9316 39.7503 99.9316 40.8076C99.9316 41.4502 99.7949 42.0267 99.5215 42.5371C99.2526 43.043 98.8652 43.4372 98.3594 43.7197C97.8535 43.9977 97.2565 44.1367 96.5684 44.1367C95.9668 44.1367 95.4085 44.016 94.8936 43.7744C94.3786 43.5283 93.9707 43.1842 93.6699 42.7422C93.3737 42.3001 93.2165 41.7965 93.1982 41.2314H95.1533C95.1943 41.6462 95.3379 41.9697 95.584 42.2021C95.8346 42.43 96.1605 42.5439 96.5615 42.5439C97.0081 42.5439 97.3522 42.3844 97.5938 42.0654C97.8353 41.7419 97.9561 41.2861 97.9561 40.6982C97.9561 40.1331 97.8171 39.7002 97.5391 39.3994C97.2611 39.0986 96.8669 38.9482 96.3564 38.9482C95.887 38.9482 95.5065 39.0713 95.2148 39.3174L95.0234 39.4951L93.4512 39.1055Z" fill="#F7F7F7"/>
<path d="M61 40L66.7735 50H55.2265L61 40ZM62 58C62 58.5523 61.5523 59 61 59C60.4477 59 60 58.5523 60 58H62ZM62 49V58H60V49H62Z" fill="black"/>
<circle cx="61.5" cy="23.5" r="10.5" fill="#005FB8"/>
<path d="M64.002 24.2539H65.1299V25.8467H64.002V28H62.0264V25.8467H57.9453L57.8564 24.6025L62.0059 18.0469H64.002V24.2539ZM59.8252 24.2539H62.0264V20.7402L61.8965 20.9658L59.8252 24.2539Z" fill="#F7F7F7"/>
<path d="M62 260L67.7735 270H56.2265L62 260ZM63 278C63 278.552 62.5523 279 62 279C61.4477 279 61 278.552 61 278H63ZM63 269V278H61V269H63Z" fill="black"/>
<circle r="10.5" transform="matrix(1 0 0 -1 61.5 294.5)" fill="#005FB8"/>
<path d="M60.167 293.148H61.2197C61.721 293.148 62.0924 293.023 62.334 292.772C62.5755 292.522 62.6963 292.189 62.6963 291.774C62.6963 291.373 62.5755 291.061 62.334 290.838C62.097 290.615 61.7689 290.503 61.3496 290.503C60.9714 290.503 60.6546 290.608 60.3994 290.817C60.1442 291.022 60.0166 291.291 60.0166 291.624H58.041C58.041 291.104 58.18 290.64 58.458 290.229C58.7406 289.815 59.1325 289.491 59.6338 289.259C60.1396 289.026 60.6956 288.91 61.3018 288.91C62.3545 288.91 63.1794 289.163 63.7764 289.669C64.3734 290.17 64.6719 290.863 64.6719 291.747C64.6719 292.203 64.5329 292.622 64.2549 293.005C63.9769 293.388 63.6123 293.682 63.1611 293.887C63.7217 294.087 64.1387 294.388 64.4121 294.789C64.6901 295.19 64.8291 295.664 64.8291 296.211C64.8291 297.095 64.5055 297.804 63.8584 298.337C63.2158 298.87 62.3636 299.137 61.3018 299.137C60.3083 299.137 59.4948 298.875 58.8613 298.351C58.2324 297.826 57.918 297.134 57.918 296.272H59.8936C59.8936 296.646 60.0326 296.951 60.3105 297.188C60.5931 297.425 60.9395 297.544 61.3496 297.544C61.819 297.544 62.1859 297.421 62.4502 297.175C62.7191 296.924 62.8535 296.594 62.8535 296.184C62.8535 295.19 62.3066 294.693 61.2129 294.693H60.167V293.148Z" fill="#F7F7F7"/>
<path d="M26 292L31.7735 282H20.2265L26 292ZM27 274C27 273.448 26.5523 273 26 273C25.4477 273 25 273.448 25 274H27ZM27 283V274H25V283H27Z" fill="black"/>
<circle r="10.5" transform="matrix(1 0 0 -1 25.5 308.5)" fill="#005FB8"/>
<path d="M28.9795 313H22.1572V311.646L25.377 308.215C25.819 307.732 26.1449 307.31 26.3545 306.95C26.5687 306.59 26.6758 306.248 26.6758 305.925C26.6758 305.483 26.5641 305.136 26.3408 304.886C26.1175 304.631 25.7985 304.503 25.3838 304.503C24.9372 304.503 24.584 304.658 24.3242 304.968C24.069 305.273 23.9414 305.676 23.9414 306.178H21.959C21.959 305.572 22.1025 305.018 22.3896 304.517C22.6813 304.015 23.0915 303.623 23.6201 303.341C24.1488 303.054 24.748 302.91 25.418 302.91C26.4434 302.91 27.2386 303.156 27.8037 303.648C28.3734 304.141 28.6582 304.836 28.6582 305.733C28.6582 306.226 28.5306 306.727 28.2754 307.237C28.0202 307.748 27.5827 308.342 26.9629 309.021L24.7002 311.407H28.9795V313Z" fill="#F7F7F7"/>
<path d="M97 262L102.774 252H91.2265L97 262ZM98 244C98 243.448 97.5523 243 97 243C96.4477 243 96 243.448 96 244H98ZM98 253V244H96V253H98Z" fill="black"/>
<circle r="10.5" transform="matrix(1 0 0 -1 96.5 278.5)" fill="#005FB8"/>
<path d="M98.5166 272.944V274.571H98.3252C97.432 274.585 96.7119 274.817 96.165 275.269C95.6227 275.72 95.2969 276.346 95.1875 277.148C95.7161 276.611 96.3838 276.342 97.1904 276.342C98.0563 276.342 98.7445 276.652 99.2549 277.271C99.7653 277.891 100.021 278.707 100.021 279.719C100.021 280.366 99.8792 280.951 99.5967 281.476C99.3187 282 98.9222 282.408 98.4072 282.699C97.8968 282.991 97.318 283.137 96.6709 283.137C95.6227 283.137 94.7751 282.772 94.1279 282.043C93.4854 281.314 93.1641 280.341 93.1641 279.124V278.413C93.1641 277.333 93.3669 276.381 93.7725 275.556C94.1826 274.726 94.7682 274.086 95.5293 273.635C96.2949 273.179 97.1813 272.949 98.1885 272.944H98.5166ZM96.5889 277.928C96.2699 277.928 95.9805 278.012 95.7207 278.181C95.4609 278.345 95.2695 278.563 95.1465 278.837V279.438C95.1465 280.099 95.2764 280.617 95.5361 280.99C95.7959 281.359 96.1605 281.544 96.6299 281.544C97.0537 281.544 97.3955 281.378 97.6553 281.045C97.9196 280.708 98.0518 280.272 98.0518 279.739C98.0518 279.197 97.9196 278.759 97.6553 278.427C97.391 278.094 97.0355 277.928 96.5889 277.928Z" fill="#F7F7F7"/>
<defs>
<filter id="filter0_d" x="13" y="50" width="27" height="227" filterUnits="userSpaceOnUse" color-interpolation-filters="sRGB">
<feFlood flood-opacity="0" result="BackgroundImageFix"/>
<feColorMatrix in="SourceAlpha" type="matrix" values="0 0 0 0 0 0 0 0 0 0 0 0 0 0 0 0 0 0 127 0" result="hardAlpha"/>
<feOffset dy="4"/>
<feGaussianBlur stdDeviation="2"/>
<feComposite in2="hardAlpha" operator="out"/>
<feColorMatrix type="matrix" values="0 0 0 0 0 0 0 0 0 0 0 0 0 0 0 0 0 0 0.04 0"/>
<feBlend mode="normal" in2="BackgroundImageFix" result="effect1_dropShadow"/>
<feBlend mode="normal" in="SourceGraphic" in2="effect1_dropShadow" result="shape"/>
</filter>
<filter id="filter1_d" x="48" y="63" width="27" height="200" filterUnits="userSpaceOnUse" color-interpolation-filters="sRGB">
<feFlood flood-opacity="0" result="BackgroundImageFix"/>
<feColorMatrix in="SourceAlpha" type="matrix" values="0 0 0 0 0 0 0 0 0 0 0 0 0 0 0 0 0 0 127 0" result="hardAlpha"/>
<feOffset dy="4"/>
<feGaussianBlur stdDeviation="2"/>
<feComposite in2="hardAlpha" operator="out"/>
<feColorMatrix type="matrix" values="0 0 0 0 0 0 0 0 0 0 0 0 0 0 0 0 0 0 0.04 0"/>
<feBlend mode="normal" in2="BackgroundImageFix" result="effect1_dropShadow"/>
<feBlend mode="normal" in="SourceGraphic" in2="effect1_dropShadow" result="shape"/>
</filter>
<filter id="filter2_d" x="83" y="79" width="27" height="168" filterUnits="userSpaceOnUse" color-interpolation-filters="sRGB">
<feFlood flood-opacity="0" result="BackgroundImageFix"/>
<feColorMatrix in="SourceAlpha" type="matrix" values="0 0 0 0 0 0 0 0 0 0 0 0 0 0 0 0 0 0 127 0" result="hardAlpha"/>
<feOffset dy="4"/>
<feGaussianBlur stdDeviation="2"/>
<feComposite in2="hardAlpha" operator="out"/>
<feColorMatrix type="matrix" values="0 0 0 0 0 0 0 0 0 0 0 0 0 0 0 0 0 0 0.04 0"/>
<feBlend mode="normal" in2="BackgroundImageFix" result="effect1_dropShadow"/>
<feBlend mode="normal" in="SourceGraphic" in2="effect1_dropShadow" result="shape"/>
</filter>
<filter id="filter3_d" x="0" y="50.0527" width="120" height="225.915" filterUnits="userSpaceOnUse" color-interpolation-filters="sRGB">
<feFlood flood-opacity="0" result="BackgroundImageFix"/>
<feColorMatrix in="SourceAlpha" type="matrix" values="0 0 0 0 0 0 0 0 0 0 0 0 0 0 0 0 0 0 127 0" result="hardAlpha"/>
<feOffset dy="4"/>
<feGaussianBlur stdDeviation="2"/>
<feComposite in2="hardAlpha" operator="out"/>
<feColorMatrix type="matrix" values="0 0 0 0 0 0 0 0 0 0 0 0 0 0 0 0 0 0 0.04 0"/>
<feBlend mode="normal" in2="BackgroundImageFix" result="effect1_dropShadow"/>
<feBlend mode="normal" in="SourceGraphic" in2="effect1_dropShadow" result="shape"/>
</filter>
</defs>
</svg>
