<svg width="120" height="319" viewBox="0 0 120 319" fill="none" xmlns="http://www.w3.org/2000/svg">
<g filter="url(#filter0_d)">
<rect width="19" height="219" rx="2" transform="matrix(-1 0 0 1 36 50)" fill="#E9E9E9"/>
<rect x="-1" y="1" width="17" height="217" rx="1" transform="matrix(-1 0 0 1 34 50)" stroke="#C4C4C4" stroke-width="2"/>
</g>
<g filter="url(#filter1_d)">
<rect width="19" height="192" rx="2" transform="matrix(-1 0 0 1 71 63)" fill="#E9E9E9"/>
<rect x="-1" y="1" width="17" height="190" rx="1" transform="matrix(-1 0 0 1 69 63)" stroke="#C4C4C4" stroke-width="2"/>
</g>
<g filter="url(#filter2_d)">
<rect width="19" height="160" rx="2" transform="matrix(-1 0 0 1 106 79)" fill="#E9E9E9"/>
<rect x="-1" y="1" width="17" height="158" rx="1" transform="matrix(-1 0 0 1 104 79)" stroke="#C4C4C4" stroke-width="2"/>
</g>
<g filter="url(#filter3_d)">
<path d="M116 163.51L116 219.624C116 220.423 115.523 221.146 114.789 221.462L6.78864 267.803C5.46881 268.37 4 267.402 4 265.965L4.00001 52.0549C4.00001 50.6134 5.47874 49.6453 6.79992 50.2218L114.8 97.3505C115.529 97.6686 116 98.3883 116 99.1836L116 163.51Z" fill="#E9E9E9"/>
<path d="M115 163.51L115 219.624C115 220.024 114.762 220.385 114.394 220.543L6.39432 266.884C5.73441 267.168 5 266.684 5 265.965L5.00001 52.0549C5.00001 51.3341 5.73938 50.8501 6.39996 51.1383L114.4 98.267C114.764 98.4261 115 98.7859 115 99.1836L115 163.51Z" stroke="#C4C4C4" stroke-width="2"/>
</g>
<path d="M25 45L30.7735 35H19.2265L25 45ZM26 27C26 26.4477 25.5523 26 25 26C24.4477 26 24 26.4477 24 27H26ZM26 36V27H24V36H26Z" fill="black"/>
<circle cx="25.5" cy="10.5" r="10.5" fill="#005FB8"/>
<path d="M26.9561 15H24.9805V7.38477L22.6221 8.11621V6.50977L26.7441 5.0332H26.9561V15Z" fill="#F7F7F7"/>
<path d="M96 74L101.774 64H90.2265L96 74ZM97 56C97 55.4477 96.5523 55 96 55C95.4477 55 95 55.4477 95 56H97ZM97 65V56H95V65H97Z" fill="black"/>
<circle cx="96.5" cy="39.5" r="10.5" fill="#005FB8"/>
<path d="M93.4512 39.1055L94.0254 34.0469H99.6035V35.6943H95.6455L95.3994 37.834C95.8688 37.5833 96.3678 37.458 96.8965 37.458C97.8444 37.458 98.5872 37.752 99.125 38.3398C99.6628 38.9277 99.9316 39.7503 99.9316 40.8076C99.9316 41.4502 99.7949 42.0267 99.5215 42.5371C99.2526 43.043 98.8652 43.4372 98.3594 43.7197C97.8535 43.9977 97.2565 44.1367 96.5684 44.1367C95.9668 44.1367 95.4085 44.016 94.8936 43.7744C94.3786 43.5283 93.9707 43.1842 93.6699 42.7422C93.3737 42.3001 93.2165 41.7965 93.1982 41.2314H95.1533C95.1943 41.6462 95.3379 41.9697 95.584 42.2021C95.8346 42.43 96.1605 42.5439 96.5615 42.5439C97.0081 42.5439 97.3522 42.3844 97.5938 42.0654C97.8353 41.7419 97.9561 41.2861 97.9561 40.6982C97.9561 40.1331 97.8171 39.7002 97.5391 39.3994C97.2611 39.0986 96.8669 38.9482 96.3564 38.9482C95.887 38.9482 95.5065 39.0713 95.2148 39.3174L95.0234 39.4951L93.4512 39.1055Z" fill="#F7F7F7"/>
<path d="M61 40L66.7735 50H55.2265L61 40ZM62 58C62 58.5523 61.5523 59 61 59C60.4477 59 60 58.5523 60 58H62ZM62 49V58H60V49H62Z" fill="black"/>
<circle cx="61.5" cy="23.5" r="10.5" fill="#005FB8"/>
<path d="M64.002 24.2539H65.1299V25.8467H64.002V28H62.0264V25.8467H57.9453L57.8564 24.6025L62.0059 18.0469H64.002V24.2539ZM59.8252 24.2539H62.0264V20.7402L61.8965 20.9658L59.8252 24.2539Z" fill="#F7F7F7"/>
<path d="M62 260L67.7735 270H56.2265L62 260ZM63 278C63 278.552 62.5523 279 62 279C61.4477 279 61 278.552 61 278H63ZM63 269V278H61V269H63Z" fill="black"/>
<circle r="10.5" transform="matrix(1 0 0 -1 61.5 294.5)" fill="#005FB8"/>
<path d="M60.167 293.148H61.2197C61.721 293.148 62.0924 293.023 62.334 292.772C62.5755 292.522 62.6963 292.189 62.6963 291.774C62.6963 291.373 62.5755 291.061 62.334 290.838C62.097 290.615 61.7689 290.503 61.3496 290.503C60.9714 290.503 60.6546 290.608 60.3994 290.817C60.1442 291.022 60.0166 291.291 60.0166 291.624H58.041C58.041 291.104 58.18 290.64 58.458 290.229C58.7406 289.815 59.1325 289.491 59.6338 289.259C60.1396 289.026 60.6956 288.91 61.3018 288.91C62.3545 288.91 63.1794 289.163 63.7764 289.669C64.3734 290.17 64.6719 290.863 64.6719 291.747C64.6719 292.203 64.5329 292.622 64.2549 293.005C63.9769 293.388 63.6123 293.682 63.1611 293.887C63.7217 294.087 64.1387 294.388 64.4121 294.789C64.6901 295.19 64.8291 295.664 64.8291 296.211C64.8291 297.095 64.5055 297.804 63.8584 298.337C63.2158 298.87 62.3636 299.137 61.3018 299.137C60.3083 299.137 59.4948 298.875 58.8613 298.351C58.2324 297.826 57.918 297.134 57.918 296.272H59.8936C59.8936 296.646 60.0326 296.951 60.3105 297.188C60.5931 297.425 60.9395 297.544 61.3496 297.544C61.819 297.544 62.1859 297.421 62.4502 297.175C62.7191 296.924 62.8535 296.594 62.8535 296.184C62.8535 295.19 62.3066 294.693 61.2129 294.693H60.167V293.148Z" fill="#F7F7F7"/>
<path d="M26 292L31.7735 282H20.2265L26 292ZM27 274C27 273.448 26.5523 273 26 273C25.4477 273 25 273.448 25 274H27ZM27 283V274H25V283H27Z" fill="black"/>
<circle r="10.5" transform="matrix(1 0 0 -1 25.5 308.5)" fill="#005FB8"/>
<path d="M28.9795 313H22.1572V311.646L25.377 308.215C25.819 307.732 26.1449 307.31 26.3545 306.95C26.5687 306.59 26.6758 306.248 26.6758 305.925C26.6758 305.483 26.5641 305.136 26.3408 304.886C26.1175 304.631 25.7985 304.503 25.3838 304.503C24.9372 304.503 24.584 304.658 24.3242 304.968C24.069 305.273 23.9414 305.676 23.9414 306.178H21.959C21.959 305.572 22.1025 305.018 22.3896 304.517C22.6813 304.015 23.0915 303.623 23.6201 303.341C24.1488 303.054 24.748 302.91 25.418 302.91C26.4434 302.91 27.2386 303.156 27.8037 303.648C28.3734 304.141 28.6582 304.836 28.6582 305.733C28.6582 306.226 28.5306 306.727 28.2754 307.237C28.0202 307.748 27.5827 308.342 26.9629 309.021L24.7002 311.407H28.9795V313Z" fill="#F7F7F7"/>
<path d="M97 262L102.774 252H91.2265L97 262ZM98 244C98 243.448 97.5523 243 97 243C96.4477 243 96 243.448 96 244H98ZM98 253V244H96V253H98Z" fill="black"/>
<circle r="10.5" transform="matrix(1 0 0 -1 96.5 278.5)" fill="#005FB8"/>
<path d="M98.5166 272.944V274.571H98.3252C97.432 274.585 96.7119 274.817 96.165 275.269C95.6227 275.72 95.2969 276.346 95.1875 277.148C95.7161 276.611 96.3838 276.342 97.1904 276.342C98.0563 276.342 98.7445 276.652 99.2549 277.271C99.7653 277.891 100.021 278.707 100.021 279.719C100.021 280.366 99.8792 280.951 99.5967 281.476C99.3187 282 98.9222 282.408 98.4072 282.699C97.8968 282.991 97.318 283.137 96.6709 283.137C95.6227 283.137 94.7751 282.772 94.1279 282.043C93.4854 281.314 93.1641 280.341 93.1641 279.124V278.413C93.1641 277.333 93.3669 276.381 93.7725 275.556C94.1826 274.726 94.7682 274.086 95.5293 273.635C96.2949 273.179 97.1813 272.949 98.1885 272.944H98.5166ZM96.5889 277.928C96.2699 277.928 95.9805 278.012 95.7207 278.181C95.4609 278.345 95.2695 278.563 95.1465 278.837V279.438C95.1465 280.099 95.2764 280.617 95.5361 280.99C95.7959 281.359 96.1605 281.544 96.6299 281.544C97.0537 281.544 97.3955 281.378 97.6553 281.045C97.9196 280.708 98.0518 280.272 98.0518 279.739C98.0518 279.197 97.9196 278.759 97.6553 278.427C97.391 278.094 97.0355 277.928 96.5889 277.928Z" fill="#F7F7F7"/>
<path d="M31.8564 161.389C31.8564 161.001 31.7197 160.705 31.4463 160.5C31.1729 160.29 30.6807 160.072 29.9697 159.844C29.2588 159.611 28.696 159.383 28.2812 159.16C27.151 158.549 26.5859 157.727 26.5859 156.692C26.5859 156.155 26.7363 155.676 27.0371 155.257C27.3424 154.833 27.7777 154.503 28.3428 154.266C28.9124 154.029 29.5505 153.91 30.2568 153.91C30.9678 153.91 31.6012 154.04 32.1572 154.3C32.7132 154.555 33.1439 154.917 33.4492 155.387C33.7591 155.856 33.9141 156.389 33.9141 156.986H31.8633C31.8633 156.531 31.7197 156.177 31.4326 155.927C31.1455 155.672 30.7422 155.544 30.2227 155.544C29.7214 155.544 29.3317 155.651 29.0537 155.865C28.7757 156.075 28.6367 156.353 28.6367 156.699C28.6367 157.023 28.7985 157.294 29.1221 157.513C29.4502 157.731 29.931 157.937 30.5645 158.128C31.7311 158.479 32.5811 158.914 33.1143 159.434C33.6475 159.953 33.9141 160.6 33.9141 161.375C33.9141 162.236 33.5882 162.913 32.9365 163.405C32.2848 163.893 31.4076 164.137 30.3047 164.137C29.5391 164.137 28.8418 163.998 28.2129 163.72C27.584 163.437 27.1032 163.052 26.7705 162.564C26.4424 162.077 26.2783 161.512 26.2783 160.869H28.3359C28.3359 161.967 28.9922 162.517 30.3047 162.517C30.7923 162.517 31.1729 162.419 31.4463 162.223C31.7197 162.022 31.8564 161.744 31.8564 161.389ZM37.5439 154.785V156.604H38.8086V158.053H37.5439V161.744C37.5439 162.018 37.5964 162.214 37.7012 162.332C37.806 162.451 38.0065 162.51 38.3027 162.51C38.5215 162.51 38.7152 162.494 38.8838 162.462V163.959C38.4964 164.077 38.0977 164.137 37.6875 164.137C36.3021 164.137 35.5957 163.437 35.5684 162.038V158.053H34.4883V156.604H35.5684V154.785H37.5439ZM44.0654 158.456C43.7965 158.42 43.5596 158.401 43.3545 158.401C42.6071 158.401 42.1172 158.654 41.8848 159.16V164H39.9092V156.604H41.7754L41.8301 157.485C42.2266 156.806 42.7757 156.467 43.4775 156.467C43.6963 156.467 43.9014 156.496 44.0928 156.556L44.0654 158.456ZM48.29 164.137C47.2054 164.137 46.3213 163.804 45.6377 163.139C44.9587 162.473 44.6191 161.587 44.6191 160.479V160.288C44.6191 159.545 44.7627 158.882 45.0498 158.299C45.3369 157.711 45.7425 157.26 46.2666 156.945C46.7952 156.626 47.3968 156.467 48.0713 156.467C49.083 156.467 49.8783 156.786 50.457 157.424C51.0404 158.062 51.332 158.966 51.332 160.138V160.944H46.6221C46.6859 161.427 46.8773 161.815 47.1963 162.106C47.5199 162.398 47.9277 162.544 48.4199 162.544C49.181 162.544 49.7757 162.268 50.2041 161.717L51.1748 162.804C50.8786 163.223 50.4775 163.551 49.9717 163.788C49.4658 164.021 48.9053 164.137 48.29 164.137ZM48.0645 158.066C47.6725 158.066 47.3535 158.199 47.1074 158.463C46.8659 158.727 46.7109 159.105 46.6426 159.598H49.3906V159.44C49.3815 159.003 49.263 158.666 49.0352 158.429C48.8073 158.187 48.4837 158.066 48.0645 158.066ZM56.7461 164C56.6549 163.822 56.5889 163.601 56.5479 163.337C56.0693 163.87 55.4473 164.137 54.6816 164.137C53.957 164.137 53.3555 163.927 52.877 163.508C52.403 163.089 52.166 162.56 52.166 161.922C52.166 161.138 52.4554 160.536 53.0342 160.117C53.6175 159.698 54.4583 159.486 55.5566 159.481H56.4658V159.058C56.4658 158.716 56.377 158.442 56.1992 158.237C56.026 158.032 55.7503 157.93 55.3721 157.93C55.0394 157.93 54.7773 158.009 54.5859 158.169C54.3991 158.328 54.3057 158.547 54.3057 158.825H52.3301C52.3301 158.397 52.4622 158 52.7266 157.636C52.9909 157.271 53.3646 156.986 53.8477 156.781C54.3307 156.572 54.873 156.467 55.4746 156.467C56.3861 156.467 57.1084 156.697 57.6416 157.157C58.1794 157.613 58.4482 158.256 58.4482 159.085V162.291C58.4528 162.993 58.5508 163.524 58.7422 163.884V164H56.7461ZM55.1123 162.626C55.404 162.626 55.6729 162.562 55.9189 162.435C56.165 162.302 56.3473 162.127 56.4658 161.908V160.637H55.7275C54.7386 160.637 54.2122 160.979 54.1484 161.662L54.1416 161.778C54.1416 162.024 54.2282 162.227 54.4014 162.387C54.5745 162.546 54.8115 162.626 55.1123 162.626ZM61.8184 156.604L61.8799 157.431C62.404 156.788 63.1126 156.467 64.0059 156.467C64.9583 156.467 65.6123 156.843 65.9678 157.595C66.4873 156.843 67.2279 156.467 68.1895 156.467C68.9915 156.467 69.5885 156.701 69.9805 157.171C70.3724 157.636 70.5684 158.338 70.5684 159.276V164H68.5859V159.283C68.5859 158.864 68.5039 158.559 68.3398 158.367C68.1758 158.171 67.8864 158.073 67.4717 158.073C66.8792 158.073 66.4691 158.356 66.2412 158.921L66.248 164H64.2725V159.29C64.2725 158.862 64.1882 158.552 64.0195 158.36C63.8509 158.169 63.5638 158.073 63.1582 158.073C62.5977 158.073 62.1921 158.306 61.9414 158.771V164H59.9658V156.604H61.8184ZM74.1777 164H72.1953V153.5H74.1777V164ZM77.8965 164H75.9141V156.604H77.8965V164ZM75.7979 154.689C75.7979 154.393 75.8958 154.149 76.0918 153.958C76.2923 153.767 76.5635 153.671 76.9053 153.671C77.2425 153.671 77.5114 153.767 77.7119 153.958C77.9124 154.149 78.0127 154.393 78.0127 154.689C78.0127 154.99 77.9102 155.236 77.7051 155.428C77.5046 155.619 77.238 155.715 76.9053 155.715C76.5726 155.715 76.3037 155.619 76.0986 155.428C75.8981 155.236 75.7979 154.99 75.7979 154.689ZM81.3486 156.604L81.4102 157.458C81.9388 156.797 82.6475 156.467 83.5361 156.467C84.32 156.467 84.9033 156.697 85.2861 157.157C85.6689 157.618 85.8649 158.306 85.874 159.222V164H83.8984V159.27C83.8984 158.85 83.8073 158.547 83.625 158.36C83.4427 158.169 83.1396 158.073 82.7158 158.073C82.1598 158.073 81.7428 158.31 81.4648 158.784V164H79.4893V156.604H81.3486ZM90.7822 164.137C89.6976 164.137 88.8135 163.804 88.1299 163.139C87.4508 162.473 87.1113 161.587 87.1113 160.479V160.288C87.1113 159.545 87.2549 158.882 87.542 158.299C87.8291 157.711 88.2347 157.26 88.7588 156.945C89.2874 156.626 89.889 156.467 90.5635 156.467C91.5752 156.467 92.3704 156.786 92.9492 157.424C93.5326 158.062 93.8242 158.966 93.8242 160.138V160.944H89.1143C89.1781 161.427 89.3695 161.815 89.6885 162.106C90.012 162.398 90.4199 162.544 90.9121 162.544C91.6732 162.544 92.2679 162.268 92.6963 161.717L93.667 162.804C93.3708 163.223 92.9697 163.551 92.4639 163.788C91.958 164.021 91.3975 164.137 90.7822 164.137ZM90.5566 158.066C90.1647 158.066 89.8457 158.199 89.5996 158.463C89.3581 158.727 89.2031 159.105 89.1348 159.598H91.8828V159.44C91.8737 159.003 91.7552 158.666 91.5273 158.429C91.2995 158.187 90.9759 158.066 90.5566 158.066Z" fill="black"/>
<defs>
<filter id="filter0_d" x="13" y="50" width="27" height="227" filterUnits="userSpaceOnUse" color-interpolation-filters="sRGB">
<feFlood flood-opacity="0" result="BackgroundImageFix"/>
<feColorMatrix in="SourceAlpha" type="matrix" values="0 0 0 0 0 0 0 0 0 0 0 0 0 0 0 0 0 0 127 0" result="hardAlpha"/>
<feOffset dy="4"/>
<feGaussianBlur stdDeviation="2"/>
<feComposite in2="hardAlpha" operator="out"/>
<feColorMatrix type="matrix" values="0 0 0 0 0 0 0 0 0 0 0 0 0 0 0 0 0 0 0.04 0"/>
<feBlend mode="normal" in2="BackgroundImageFix" result="effect1_dropShadow"/>
<feBlend mode="normal" in="SourceGraphic" in2="effect1_dropShadow" result="shape"/>
</filter>
<filter id="filter1_d" x="48" y="63" width="27" height="200" filterUnits="userSpaceOnUse" color-interpolation-filters="sRGB">
<feFlood flood-opacity="0" result="BackgroundImageFix"/>
<feColorMatrix in="SourceAlpha" type="matrix" values="0 0 0 0 0 0 0 0 0 0 0 0 0 0 0 0 0 0 127 0" result="hardAlpha"/>
<feOffset dy="4"/>
<feGaussianBlur stdDeviation="2"/>
<feComposite in2="hardAlpha" operator="out"/>
<feColorMatrix type="matrix" values="0 0 0 0 0 0 0 0 0 0 0 0 0 0 0 0 0 0 0.04 0"/>
<feBlend mode="normal" in2="BackgroundImageFix" result="effect1_dropShadow"/>
<feBlend mode="normal" in="SourceGraphic" in2="effect1_dropShadow" result="shape"/>
</filter>
<filter id="filter2_d" x="83" y="79" width="27" height="168" filterUnits="userSpaceOnUse" color-interpolation-filters="sRGB">
<feFlood flood-opacity="0" result="BackgroundImageFix"/>
<feColorMatrix in="SourceAlpha" type="matrix" values="0 0 0 0 0 0 0 0 0 0 0 0 0 0 0 0 0 0 127 0" result="hardAlpha"/>
<feOffset dy="4"/>
<feGaussianBlur stdDeviation="2"/>
<feComposite in2="hardAlpha" operator="out"/>
<feColorMatrix type="matrix" values="0 0 0 0 0 0 0 0 0 0 0 0 0 0 0 0 0 0 0.04 0"/>
<feBlend mode="normal" in2="BackgroundImageFix" result="effect1_dropShadow"/>
<feBlend mode="normal" in="SourceGraphic" in2="effect1_dropShadow" result="shape"/>
</filter>
<filter id="filter3_d" x="0" y="50.0527" width="120" height="225.915" filterUnits="userSpaceOnUse" color-interpolation-filters="sRGB">
<feFlood flood-opacity="0" result="BackgroundImageFix"/>
<feColorMatrix in="SourceAlpha" type="matrix" values="0 0 0 0 0 0 0 0 0 0 0 0 0 0 0 0 0 0 127 0" result="hardAlpha"/>
<feOffset dy="4"/>
<feGaussianBlur stdDeviation="2"/>
<feComposite in2="hardAlpha" operator="out"/>
<feColorMatrix type="matrix" values="0 0 0 0 0 0 0 0 0 0 0 0 0 0 0 0 0 0 0.04 0"/>
<feBlend mode="normal" in2="BackgroundImageFix" result="effect1_dropShadow"/>
<feBlend mode="normal" in="SourceGraphic" in2="effect1_dropShadow" result="shape"/>
</filter>
</defs>
</svg>
