<svg width="130" height="367" viewBox="0 0 130 367" fill="none" xmlns="http://www.w3.org/2000/svg">
<g filter="url(#filter0_d)">
<rect width="19" height="219" rx="4" transform="matrix(-1 0 0 1 41 76)" fill="#F9F9F9"/>
<rect x="-1" y="1" width="17" height="217" rx="3" transform="matrix(-1 0 0 1 39 76)" stroke="#C4C4C4" stroke-width="2"/>
</g>
<g filter="url(#filter1_d)">
<rect width="19" height="192" rx="4" transform="matrix(-1 0 0 1 76 89)" fill="#F9F9F9"/>
<rect x="-1" y="1" width="17" height="190" rx="3" transform="matrix(-1 0 0 1 74 89)" stroke="#C4C4C4" stroke-width="2"/>
</g>
<g filter="url(#filter2_d)">
<rect width="19" height="160" rx="4" transform="matrix(-1 0 0 1 111 105)" fill="#F9F9F9"/>
<rect x="-1" y="1" width="17" height="158" rx="3" transform="matrix(-1 0 0 1 109 105)" stroke="#C4C4C4" stroke-width="2"/>
</g>
<g filter="url(#filter3_d)">
<path d="M121 189.51L121 244.306C121 245.905 120.047 247.351 118.577 247.981L14.5773 292.607C11.9376 293.739 9 291.803 9 288.931L9.00001 81.1098C9.00001 78.2268 11.9575 76.2906 14.5998 77.4436L118.6 122.827C120.058 123.463 121 124.902 121 126.493L121 189.51Z" fill="#F9F9F9"/>
<path d="M120 189.51L120 244.306C120 245.505 119.285 246.589 118.183 247.062L14.183 291.688C12.2032 292.537 10 291.085 10 288.931L10 81.1098C10 78.9475 12.2181 77.4954 14.1999 78.3602L118.2 123.743C119.293 124.22 120 125.3 120 126.493L120 189.51Z" stroke="#C4C4C4" stroke-width="2"/>
</g>
<path d="M30 71L35.7735 61H24.2265L30 71ZM31 53C31 52.4477 30.5523 52 30 52C29.4477 52 29 52.4477 29 53H31ZM31 62V53H29V62H31Z" fill="#424242"/>
<circle cx="30.5" cy="36.5" r="10.5" fill="#005FB8"/>
<path d="M31.9561 41H29.9805V33.3848L27.6221 34.1162V32.5098L31.7441 31.0332H31.9561V41Z" fill="white"/>
<path d="M101 100L106.774 90H95.2265L101 100ZM102 82C102 81.4477 101.552 81 101 81C100.448 81 100 81.4477 100 82H102ZM102 91V82H100V91H102Z" fill="#424242"/>
<circle cx="101.5" cy="65.5" r="10.5" fill="#005FB8"/>
<path d="M98.4512 65.1055L99.0254 60.0469H104.604V61.6943H100.646L100.399 63.834C100.869 63.5833 101.368 63.458 101.896 63.458C102.844 63.458 103.587 63.752 104.125 64.3398C104.663 64.9277 104.932 65.7503 104.932 66.8076C104.932 67.4502 104.795 68.0267 104.521 68.5371C104.253 69.043 103.865 69.4372 103.359 69.7197C102.854 69.9977 102.257 70.1367 101.568 70.1367C100.967 70.1367 100.409 70.016 99.8936 69.7744C99.3786 69.5283 98.9707 69.1842 98.6699 68.7422C98.3737 68.3001 98.2165 67.7965 98.1982 67.2314H100.153C100.194 67.6462 100.338 67.9697 100.584 68.2021C100.835 68.43 101.16 68.5439 101.562 68.5439C102.008 68.5439 102.352 68.3844 102.594 68.0654C102.835 67.7419 102.956 67.2861 102.956 66.6982C102.956 66.1331 102.817 65.7002 102.539 65.3994C102.261 65.0986 101.867 64.9482 101.356 64.9482C100.887 64.9482 100.507 65.0713 100.215 65.3174L100.023 65.4951L98.4512 65.1055Z" fill="white"/>
<path d="M66 66L71.7735 76H60.2265L66 66ZM67 84C67 84.5523 66.5523 85 66 85C65.4477 85 65 84.5523 65 84H67ZM67 75V84H65V75H67Z" fill="#424242"/>
<circle cx="66.5" cy="49.5" r="10.5" fill="#005FB8"/>
<path d="M69.002 50.2539H70.1299V51.8467H69.002V54H67.0264V51.8467H62.9453L62.8564 50.6025L67.0059 44.0469H69.002V50.2539ZM64.8252 50.2539H67.0264V46.7402L66.8965 46.9658L64.8252 50.2539Z" fill="white"/>
<path d="M67 286L72.7735 296H61.2265L67 286ZM68 304C68 304.552 67.5523 305 67 305C66.4477 305 66 304.552 66 304H68ZM68 295V304H66V295H68Z" fill="#424242"/>
<circle r="10.5" transform="matrix(1 0 0 -1 66.5 320.5)" fill="#005FB8"/>
<path d="M65.167 319.148H66.2197C66.721 319.148 67.0924 319.023 67.334 318.772C67.5755 318.522 67.6963 318.189 67.6963 317.774C67.6963 317.373 67.5755 317.061 67.334 316.838C67.097 316.615 66.7689 316.503 66.3496 316.503C65.9714 316.503 65.6546 316.608 65.3994 316.817C65.1442 317.022 65.0166 317.291 65.0166 317.624H63.041C63.041 317.104 63.18 316.64 63.458 316.229C63.7406 315.815 64.1325 315.491 64.6338 315.259C65.1396 315.026 65.6956 314.91 66.3018 314.91C67.3545 314.91 68.1794 315.163 68.7764 315.669C69.3734 316.17 69.6719 316.863 69.6719 317.747C69.6719 318.203 69.5329 318.622 69.2549 319.005C68.9769 319.388 68.6123 319.682 68.1611 319.887C68.7217 320.087 69.1387 320.388 69.4121 320.789C69.6901 321.19 69.8291 321.664 69.8291 322.211C69.8291 323.095 69.5055 323.804 68.8584 324.337C68.2158 324.87 67.3636 325.137 66.3018 325.137C65.3083 325.137 64.4948 324.875 63.8613 324.351C63.2324 323.826 62.918 323.134 62.918 322.272H64.8936C64.8936 322.646 65.0326 322.951 65.3105 323.188C65.5931 323.425 65.9395 323.544 66.3496 323.544C66.819 323.544 67.1859 323.421 67.4502 323.175C67.7191 322.924 67.8535 322.594 67.8535 322.184C67.8535 321.19 67.3066 320.693 66.2129 320.693H65.167V319.148Z" fill="white"/>
<path d="M31 318L36.7735 308H25.2265L31 318ZM32 300C32 299.448 31.5523 299 31 299C30.4477 299 30 299.448 30 300H32ZM32 309V300H30V309H32Z" fill="#424242"/>
<circle r="10.5" transform="matrix(1 0 0 -1 30.5 334.5)" fill="#005FB8"/>
<path d="M33.9795 339H27.1572V337.646L30.377 334.215C30.819 333.732 31.1449 333.31 31.3545 332.95C31.5687 332.59 31.6758 332.248 31.6758 331.925C31.6758 331.483 31.5641 331.136 31.3408 330.886C31.1175 330.631 30.7985 330.503 30.3838 330.503C29.9372 330.503 29.584 330.658 29.3242 330.968C29.069 331.273 28.9414 331.676 28.9414 332.178H26.959C26.959 331.572 27.1025 331.018 27.3896 330.517C27.6813 330.015 28.0915 329.623 28.6201 329.341C29.1488 329.054 29.748 328.91 30.418 328.91C31.4434 328.91 32.2386 329.156 32.8037 329.648C33.3734 330.141 33.6582 330.836 33.6582 331.733C33.6582 332.226 33.5306 332.727 33.2754 333.237C33.0202 333.748 32.5827 334.342 31.9629 335.021L29.7002 337.407H33.9795V339Z" fill="white"/>
<path d="M102 288L107.774 278H96.2265L102 288ZM103 270C103 269.448 102.552 269 102 269C101.448 269 101 269.448 101 270H103ZM103 279V270H101V279H103Z" fill="#424242"/>
<circle r="10.5" transform="matrix(1 0 0 -1 101.5 304.5)" fill="#005FB8"/>
<path d="M103.517 298.944V300.571H103.325C102.432 300.585 101.712 300.817 101.165 301.269C100.623 301.72 100.297 302.346 100.188 303.148C100.716 302.611 101.384 302.342 102.19 302.342C103.056 302.342 103.744 302.652 104.255 303.271C104.765 303.891 105.021 304.707 105.021 305.719C105.021 306.366 104.879 306.951 104.597 307.476C104.319 308 103.922 308.408 103.407 308.699C102.897 308.991 102.318 309.137 101.671 309.137C100.623 309.137 99.7751 308.772 99.1279 308.043C98.4854 307.314 98.1641 306.341 98.1641 305.124V304.413C98.1641 303.333 98.3669 302.381 98.7725 301.556C99.1826 300.726 99.7682 300.086 100.529 299.635C101.295 299.179 102.181 298.949 103.188 298.944H103.517ZM101.589 303.928C101.27 303.928 100.98 304.012 100.721 304.181C100.461 304.345 100.27 304.563 100.146 304.837V305.438C100.146 306.099 100.276 306.617 100.536 306.99C100.796 307.359 101.16 307.544 101.63 307.544C102.054 307.544 102.396 307.378 102.655 307.045C102.92 306.708 103.052 306.272 103.052 305.739C103.052 305.197 102.92 304.759 102.655 304.427C102.391 304.094 102.035 303.928 101.589 303.928Z" fill="white"/>
<rect x="0.5" y="0.5" width="129" height="366" rx="3.5" stroke="#EDEDED" stroke-opacity="0.01"/>
<defs>
<filter id="filter0_d" x="18" y="76" width="27" height="227" filterUnits="userSpaceOnUse" color-interpolation-filters="sRGB">
<feFlood flood-opacity="0" result="BackgroundImageFix"/>
<feColorMatrix in="SourceAlpha" type="matrix" values="0 0 0 0 0 0 0 0 0 0 0 0 0 0 0 0 0 0 127 0" result="hardAlpha"/>
<feOffset dy="4"/>
<feGaussianBlur stdDeviation="2"/>
<feComposite in2="hardAlpha" operator="out"/>
<feColorMatrix type="matrix" values="0 0 0 0 0 0 0 0 0 0 0 0 0 0 0 0 0 0 0.04 0"/>
<feBlend mode="normal" in2="BackgroundImageFix" result="effect1_dropShadow"/>
<feBlend mode="normal" in="SourceGraphic" in2="effect1_dropShadow" result="shape"/>
</filter>
<filter id="filter1_d" x="53" y="89" width="27" height="200" filterUnits="userSpaceOnUse" color-interpolation-filters="sRGB">
<feFlood flood-opacity="0" result="BackgroundImageFix"/>
<feColorMatrix in="SourceAlpha" type="matrix" values="0 0 0 0 0 0 0 0 0 0 0 0 0 0 0 0 0 0 127 0" result="hardAlpha"/>
<feOffset dy="4"/>
<feGaussianBlur stdDeviation="2"/>
<feComposite in2="hardAlpha" operator="out"/>
<feColorMatrix type="matrix" values="0 0 0 0 0 0 0 0 0 0 0 0 0 0 0 0 0 0 0.04 0"/>
<feBlend mode="normal" in2="BackgroundImageFix" result="effect1_dropShadow"/>
<feBlend mode="normal" in="SourceGraphic" in2="effect1_dropShadow" result="shape"/>
</filter>
<filter id="filter2_d" x="88" y="105" width="27" height="168" filterUnits="userSpaceOnUse" color-interpolation-filters="sRGB">
<feFlood flood-opacity="0" result="BackgroundImageFix"/>
<feColorMatrix in="SourceAlpha" type="matrix" values="0 0 0 0 0 0 0 0 0 0 0 0 0 0 0 0 0 0 127 0" result="hardAlpha"/>
<feOffset dy="4"/>
<feGaussianBlur stdDeviation="2"/>
<feComposite in2="hardAlpha" operator="out"/>
<feColorMatrix type="matrix" values="0 0 0 0 0 0 0 0 0 0 0 0 0 0 0 0 0 0 0.04 0"/>
<feBlend mode="normal" in2="BackgroundImageFix" result="effect1_dropShadow"/>
<feBlend mode="normal" in="SourceGraphic" in2="effect1_dropShadow" result="shape"/>
</filter>
<filter id="filter3_d" x="5" y="77.1055" width="120" height="223.83" filterUnits="userSpaceOnUse" color-interpolation-filters="sRGB">
<feFlood flood-opacity="0" result="BackgroundImageFix"/>
<feColorMatrix in="SourceAlpha" type="matrix" values="0 0 0 0 0 0 0 0 0 0 0 0 0 0 0 0 0 0 127 0" result="hardAlpha"/>
<feOffset dy="4"/>
<feGaussianBlur stdDeviation="2"/>
<feComposite in2="hardAlpha" operator="out"/>
<feColorMatrix type="matrix" values="0 0 0 0 0 0 0 0 0 0 0 0 0 0 0 0 0 0 0.04 0"/>
<feBlend mode="normal" in2="BackgroundImageFix" result="effect1_dropShadow"/>
<feBlend mode="normal" in="SourceGraphic" in2="effect1_dropShadow" result="shape"/>
</filter>
</defs>
</svg>
