<svg width="30" height="11" viewBox="0 0 30 11" fill="none" xmlns="http://www.w3.org/2000/svg">
<path d="M28.0588 6.69101L28.0588 5.52104L28.0588 4.0737C28.0588 3.21284 27.508 2.44856 26.6913 2.17633L24.6325 1.49006C23.3374 1.05837 22 2.02231 22 3.38742L22 7.37728C22 8.74239 23.3374 9.70633 24.6325 9.27465L26.6913 8.58837C27.508 8.31614 28.0588 7.55187 28.0588 6.69101Z" fill="#CFCFCF" stroke="#424242" stroke-width="2"/>
<path d="M18.0588 6.69101L18.0588 5.52104L18.0588 4.0737C18.0588 3.21284 17.508 2.44856 16.6913 2.17633L14.6325 1.49006C13.3374 1.05837 12 2.02231 12 3.38742L12 7.37728C12 8.74239 13.3374 9.70633 14.6325 9.27465L16.6913 8.58837C17.508 8.31614 18.0588 7.55187 18.0588 6.69101Z" fill="#CFCFCF" stroke="#424242" stroke-width="2"/>
<path d="M8 1.74004V6.90854V9.3046C8 9.68866 7.68866 10 7.3046 10C7.16302 10 7.02481 9.95678 6.90844 9.87612L6.64186 9.69134C5.38559 8.82052 3.72534 8.80367 2.45164 9.64879L2.1607 9.84183C2.03821 9.92311 1.89446 9.96646 1.74745 9.96646C1.33465 9.96646 1 9.63182 1 9.21901V1.6954C1 1.31134 1.31134 1 1.6954 1C1.83698 1 1.9752 1.04322 2.09156 1.12388L2.3529 1.30503C3.61364 2.17894 5.28205 2.1874 6.55158 1.32632L6.84457 1.12759C6.96715 1.04445 7.11186 1.00001 7.25998 1.00001C7.66868 1.00001 8 1.33134 8 1.74004Z" fill="#CFCFCF" stroke="#424242" stroke-width="2"/>
</svg>
