<svg width="126" height="209" viewBox="0 0 126 209" fill="none" xmlns="http://www.w3.org/2000/svg">
<path d="M124 3.00056V131.262V206C124 206.552 123.552 207 123 207H96.0317C95.7771 207 95.532 206.903 95.3465 206.728L67.0663 180.124C65.1719 178.342 62.2274 178.31 60.2945 180.051L31.3599 206.106C31.1762 206.271 30.9378 206.363 30.6907 206.363H3C2.44771 206.363 2 205.915 2 205.363V3C2 2.44772 2.44772 2 3 2H29.9683C30.2229 2 30.468 2.09715 30.6535 2.27164L58.9115 28.8548C60.8213 30.6515 63.7945 30.6676 65.7237 28.8918L94.6509 2.26428C94.8355 2.09434 95.0772 2.00002 95.3281 2.00002L123 2.00056C123.552 2.00057 124 2.44829 124 3.00056Z" fill="#CFCFCF" stroke="#424242" stroke-width="4"/>
</svg>
