<svg width="15" height="18" viewBox="0 0 15 18" fill="none" xmlns="http://www.w3.org/2000/svg">
<path d="M14 2.9104V11.3049V15.1642C14 16.1781 13.1781 17 12.1642 17C11.7958 17 11.4359 16.8892 11.1313 16.6819L9.7957 15.7729C8.46199 14.8652 6.71354 14.8476 5.36179 15.7282L3.97223 16.6334C3.65999 16.8368 3.29537 16.9451 2.92272 16.9451C1.86083 16.9451 1 16.0843 1 15.0224V2.8358C1 1.82192 1.82192 1 2.8358 1C3.20422 1 3.56411 1.11085 3.86868 1.31813L5.18616 2.21476C6.53204 3.13072 8.29877 3.13962 9.6538 2.23726L11.0307 1.32032C11.3444 1.11145 11.7128 1.00001 12.0896 1.00001C13.1447 1.00003 14 1.85533 14 2.9104Z" fill="#CFCFCF" stroke="#424242" stroke-width="2"/>
</svg>
